<svg id="OBJECTS" xmlns="http://www.w3.org/2000/svg" viewBox="0 0 956.28 761.67"><defs><style>.cls-1{fill:#361635;}.cls-2{fill:#00bff2;}.cls-3{fill:#ffa700;}.cls-4{fill:#ff3a3d;}</style></defs><title>BG</title><rect class="cls-1" x="0.26" y="0.23" width="955.76" height="761.44"/><path class="cls-2" d="M322.46,215.66c-2.57,0-2.58,4,0,4S325,215.66,322.46,215.66Z"/><path class="cls-2" d="M195.8,115.66c-2.57,0-2.58,4,0,4S198.37,115.66,195.8,115.66Z"/><path class="cls-2" d="M43.13,261c-2.57,0-2.58,4,0,4S45.71,261,43.13,261Z"/><path class="cls-2" d="M216.46,423c-2.57,0-2.58,4,0,4S219,423,216.46,423Z"/><path class="cls-2" d="M58.46,500.33c-2.57,0-2.58,4,0,4S61,500.33,58.46,500.33Z"/><path class="cls-2" d="M353.13,536.33c-2.57,0-2.58,4,0,4S355.71,536.33,353.13,536.33Z"/><path class="cls-3" d="M399.13,143.66c-2.57,0-2.58,4,0,4S401.71,143.66,399.13,143.66Z"/><path class="cls-3" d="M89.8,247.66c-2.57,0-2.58,4,0,4S92.37,247.66,89.8,247.66Z"/><path class="cls-3" d="M36.46,153c-2.57,0-2.58,4,0,4S39,153,36.46,153Z"/><path class="cls-3" d="M449.52,470a2,2,0,0,0-2.74-.72l-1.33.67a2,2,0,0,0-.72,2.74,2,2,0,0,0,2.74.72l1.33-.67A2,2,0,0,0,449.52,470Z"/><path class="cls-3" d="M61.5,453c-2.57,0-2.58,4,0,4S64.08,453,61.5,453Z"/><path class="cls-3" d="M183.8,109.33a1,1,0,0,0,0,2A1,1,0,0,0,183.8,109.33Z"/><path class="cls-3" d="M64.46,154a1,1,0,0,0,0,2A1,1,0,0,0,64.46,154Z"/><path class="cls-3" d="M30.46,184a1,1,0,0,0,0,2A1,1,0,0,0,30.46,184Z"/><path class="cls-3" d="M55.8,227.33a1,1,0,0,0,0,2A1,1,0,0,0,55.8,227.33Z"/><path class="cls-3" d="M103.8,252a1,1,0,0,0,0,2A1,1,0,0,0,103.8,252Z"/><path class="cls-3" d="M361.8,164.66a1,1,0,0,0,0,2A1,1,0,0,0,361.8,164.66Z"/><path class="cls-3" d="M341.13,189.33a1,1,0,0,0,0,2A1,1,0,0,0,341.13,189.33Z"/><path class="cls-3" d="M427.8,141.33a1,1,0,0,0,0,2A1,1,0,0,0,427.8,141.33Z"/><path class="cls-3" d="M333.13,224a1,1,0,0,0,0,2A1,1,0,0,0,333.13,224Z"/><path class="cls-3" d="M433.8,404.66a1,1,0,0,0,0,2A1,1,0,0,0,433.8,404.66Z"/><path class="cls-3" d="M424.46,424a1,1,0,0,0,0,2A1,1,0,0,0,424.46,424Z"/><path class="cls-3" d="M457.8,435.33a1,1,0,0,0,0,2A1,1,0,0,0,457.8,435.33Z"/><path class="cls-3" d="M460.46,476.66a1,1,0,0,0,0,2A1,1,0,0,0,460.46,476.66Z"/><path class="cls-3" d="M371.8,516.66a1,1,0,0,0,0,2A1,1,0,0,0,371.8,516.66Z"/><path class="cls-3" d="M211.8,542.66a1,1,0,0,0,0,2A1,1,0,0,0,211.8,542.66Z"/><path class="cls-3" d="M59.13,482a1,1,0,0,0,0,2A1,1,0,0,0,59.13,482Z"/><path class="cls-3" d="M41.8,478a1,1,0,0,0,0,2A1,1,0,0,0,41.8,478Z"/><path class="cls-3" d="M47.8,466a1,1,0,0,0,0,2A1,1,0,0,0,47.8,466Z"/><path class="cls-3" d="M45.13,414.66a1,1,0,0,0,0,2A1,1,0,0,0,45.13,414.66Z"/><path class="cls-3" d="M29.8,360.66a1,1,0,0,0,0,2A1,1,0,0,0,29.8,360.66Z"/><path class="cls-3" d="M279.8,157.33a1,1,0,0,0,0,2A1,1,0,0,0,279.8,157.33Z"/><path class="cls-3" d="M346.46,143.33a1,1,0,0,0,0,2A1,1,0,0,0,346.46,143.33Z"/><path class="cls-4" d="M452.46,142a1,1,0,0,0,0,2A1,1,0,0,0,452.46,142Z"/><path class="cls-4" d="M393.13,104.66a1,1,0,0,0,0,2A1,1,0,0,0,393.13,104.66Z"/><path class="cls-4" d="M259.8,88a1,1,0,0,0,0,2A1,1,0,0,0,259.8,88Z"/><path class="cls-4" d="M246.46,196a1,1,0,0,0,0,2A1,1,0,0,0,246.46,196Z"/><path class="cls-4" d="M171.13,253.33a1,1,0,0,0,0,2A1,1,0,0,0,171.13,253.33Z"/><path class="cls-4" d="M393.8,289.33a1,1,0,0,0,0,2A1,1,0,0,0,393.8,289.33Z"/><path class="cls-4" d="M135.13,327.33a1,1,0,0,0,0,2A1,1,0,0,0,135.13,327.33Z"/><path class="cls-4" d="M144.46,406.66a1,1,0,0,0,0,2A1,1,0,0,0,144.46,406.66Z"/><path class="cls-4" d="M183.13,442.66a1,1,0,0,0,0,2A1,1,0,0,0,183.13,442.66Z"/><path class="cls-4" d="M62.46,468.66a1,1,0,0,0,0,2A1,1,0,0,0,62.46,468.66Z"/><path class="cls-4" d="M30.46,441.33a1,1,0,0,0,0,2A1,1,0,0,0,30.46,441.33Z"/><path class="cls-4" d="M79.8,414a1,1,0,0,0,0,2A1,1,0,0,0,79.8,414Z"/><path class="cls-4" d="M57.8,250.66a1,1,0,0,0,0,2A1,1,0,0,0,57.8,250.66Z"/><path class="cls-4" d="M29.13,212a1,1,0,0,0,0,2A1,1,0,0,0,29.13,212Z"/><path class="cls-4" d="M53.13,123.33a1,1,0,0,0,0,2A1,1,0,0,0,53.13,123.33Z"/><path class="cls-4" d="M109.8,129.33a1,1,0,0,0,0,2A1,1,0,0,0,109.8,129.33Z"/><path class="cls-4" d="M268.46,193.33a1,1,0,0,0,0,2A1,1,0,0,0,268.46,193.33Z"/><path class="cls-4" d="M477.8,309.33a1,1,0,0,0,0,2A1,1,0,0,0,477.8,309.33Z"/><path class="cls-4" d="M425.13,380.66a1,1,0,0,0,0,2A1,1,0,0,0,425.13,380.66Z"/><path class="cls-4" d="M476.46,384a1,1,0,0,0,0,2A1,1,0,0,0,476.46,384Z"/><path class="cls-4" d="M393.13,490a1,1,0,0,0,0,2A1,1,0,0,0,393.13,490Z"/><path class="cls-4" d="M375.8,532.66a1,1,0,0,0,0,2A1,1,0,0,0,375.8,532.66Z"/><path class="cls-4" d="M329.8,513.33a1,1,0,0,0,0,2A1,1,0,0,0,329.8,513.33Z"/><path class="cls-4" d="M114.46,508.66a1,1,0,0,0,0,2A1,1,0,0,0,114.46,508.66Z"/><path class="cls-4" d="M331.13,554a1,1,0,0,0,0,2A1,1,0,0,0,331.13,554Z"/><path class="cls-2" d="M252.43,355.66c-2.57,0-2.58,4,0,4S255,355.66,252.43,355.66Z"/><path class="cls-3" d="M271.1,336a1,1,0,0,0,0,2A1,1,0,0,0,271.1,336Z"/><path class="cls-4" d="M292.43,309.33a1,1,0,0,0,0,2A1,1,0,0,0,292.43,309.33Z"/><path class="cls-4" d="M275.1,352a1,1,0,0,0,0,2A1,1,0,0,0,275.1,352Z"/><path class="cls-4" d="M229.1,332.66a1,1,0,0,0,0,2A1,1,0,0,0,229.1,332.66Z"/><path class="cls-4" d="M230.43,373.33a1,1,0,0,0,0,2A1,1,0,0,0,230.43,373.33Z"/><path class="cls-4" d="M457.13,556.66a1,1,0,0,0,0,2A1,1,0,0,0,457.13,556.66Z"/><path class="cls-4" d="M361.8,378a1,1,0,0,0,0,2A1,1,0,0,0,361.8,378Z"/><path class="cls-4" d="M345.8,401.33a1,1,0,0,0,0,2A1,1,0,0,0,345.8,401.33Z"/><path class="cls-4" d="M401.13,352a1,1,0,0,0,0,2A1,1,0,0,0,401.13,352Z"/><path class="cls-4" d="M343.8,266.66a1,1,0,0,0,0,2A1,1,0,0,0,343.8,266.66Z"/><path class="cls-4" d="M153.8,351.33a1,1,0,0,0,0,2A1,1,0,0,0,153.8,351.33Z"/><path class="cls-4" d="M161.13,414.66a1,1,0,0,0,0,2A1,1,0,0,0,161.13,414.66Z"/><path class="cls-4" d="M231.8,430.66a1,1,0,0,0,0,2A1,1,0,0,0,231.8,430.66Z"/><path class="cls-2" d="M143.13,295.33a1,1,0,0,0,0,2A1,1,0,0,0,143.13,295.33Z"/><path class="cls-2" d="M830.43,144.66c-2.57,0-2.58,4,0,4S833,144.66,830.43,144.66Z"/><path class="cls-3" d="M877.1,131.33c-2.57,0-2.58,4,0,4S879.68,131.33,877.1,131.33Z"/><path class="cls-3" d="M843.1,111a1,1,0,0,0,0,2A1,1,0,0,0,843.1,111Z"/><path class="cls-3" d="M891.1,135.66a1,1,0,0,0,0,2A1,1,0,0,0,891.1,135.66Z"/><path class="cls-4" d="M845.1,134.33a1,1,0,0,0,0,2A1,1,0,0,0,845.1,134.33Z"/><path class="cls-2" d="M930.43,179a1,1,0,0,0,0,2A1,1,0,0,0,930.43,179Z"/><path class="cls-2" d="M91.13,375.33a1,1,0,0,0,0,2A1,1,0,0,0,91.13,375.33Z"/><path class="cls-2" d="M183.8,436a1,1,0,0,0,0,2A1,1,0,0,0,183.8,436Z"/><path class="cls-2" d="M267.8,532a1,1,0,0,0,0,2A1,1,0,0,0,267.8,532Z"/><path class="cls-2" d="M497.8,543.33a1,1,0,0,0,0,2A1,1,0,0,0,497.8,543.33Z"/><path class="cls-2" d="M39.8,518a1,1,0,0,0,0,2A1,1,0,0,0,39.8,518Z"/><path class="cls-2" d="M49.13,556a1,1,0,0,0,0,2A1,1,0,0,0,49.13,556Z"/><path class="cls-2" d="M447.8,278.66a1,1,0,0,0,0,2A1,1,0,0,0,447.8,278.66Z"/><path class="cls-2" d="M438.46,108a1,1,0,0,0,0,2A1,1,0,0,0,438.46,108Z"/><path class="cls-2" d="M778.8,311c-2-1.66-4.55,1.38-2.59,3.05S780.77,312.64,778.8,311Z"/><path class="cls-2" d="M746.85,152.79c-2-1.66-4.55,1.38-2.59,3.05S748.81,154.46,746.85,152.79Z"/><path class="cls-2" d="M563.87,400.58c-2-1.66-4.55,1.38-2.59,3.05S565.84,402.25,563.87,400.58Z"/><path class="cls-3" d="M883.84,305.63c-2-1.66-4.55,1.38-2.59,3.05S885.81,307.3,883.84,305.63Z"/><path class="cls-3" d="M711.26,587.14a2,2,0,0,0-1.62-2.32l-1.45-.35a2,2,0,0,0-2.32,1.62,2,2,0,0,0,1.62,2.32l1.45,0.35A2,2,0,0,0,711.26,587.14Z"/><path class="cls-3" d="M741.79,140.2a1,1,0,0,0-1.29,1.53A1,1,0,0,0,741.79,140.2Z"/><path class="cls-3" d="M841.78,297.51a1,1,0,0,0-1.29,1.53A1,1,0,0,0,841.78,297.51Z"/><path class="cls-3" d="M810.07,303a1,1,0,0,0-1.29,1.53A1,1,0,0,0,810.07,303Z"/><path class="cls-3" d="M907.22,322.39a1,1,0,0,0-1.29,1.53A1,1,0,0,0,907.22,322.39Z"/><path class="cls-3" d="M781.55,324.23a1,1,0,0,0-1.29,1.53A1,1,0,0,0,781.55,324.23Z"/><path class="cls-3" d="M741.51,527.14a1,1,0,0,0-1.29,1.53A1,1,0,0,0,741.51,527.14Z"/><path class="cls-3" d="M721.89,535.85a1,1,0,0,0-1.29,1.53A1,1,0,0,0,721.89,535.85Z"/><path class="cls-3" d="M740,566a1,1,0,0,0-1.29,1.53A1,1,0,0,0,740,566Z"/><path class="cls-3" d="M784,238.89a1,1,0,0,0-1.29,1.53A1,1,0,0,0,784,238.89Z"/><path class="cls-3" d="M843.88,271.32a1,1,0,0,0-1.29,1.53A1,1,0,0,0,843.88,271.32Z"/><path class="cls-4" d="M925.6,338.85a1,1,0,0,0-1.29,1.53A1,1,0,0,0,925.6,338.85Z"/><path class="cls-4" d="M904.48,272a1,1,0,0,0-1.29,1.53A1,1,0,0,0,904.48,272Z"/><path class="cls-4" d="M813.56,173.07a1,1,0,0,0-1.29,1.53A1,1,0,0,0,813.56,173.07Z"/><path class="cls-4" d="M733.55,246.83a1,1,0,0,0-1.29,1.53A1,1,0,0,0,733.55,246.83Z"/><path class="cls-4" d="M639,241.85a1,1,0,0,0-1.29,1.53A1,1,0,0,0,639,241.85Z"/><path class="cls-4" d="M785.58,413.3a1,1,0,0,0-1.29,1.53A1,1,0,0,0,785.58,413.3Z"/><path class="cls-4" d="M563.7,275a1,1,0,0,0-1.29,1.53A1,1,0,0,0,563.7,275Z"/><path class="cls-4" d="M519.52,341.57a1,1,0,0,0-1.29,1.53A1,1,0,0,0,519.52,341.57Z"/><path class="cls-4" d="M525.73,394a1,1,0,0,0-1.29,1.53A1,1,0,0,0,525.73,394Z"/><path class="cls-4" d="M752.05,259a1,1,0,0,0-1.29,1.53A1,1,0,0,0,752.05,259Z"/><path class="cls-4" d="M836.72,482.87a1,1,0,0,0-1.29,1.53A1,1,0,0,0,836.72,482.87Z"/><path class="cls-4" d="M750.42,503.23a1,1,0,0,0-1.29,1.53A1,1,0,0,0,750.42,503.23Z"/><path class="cls-4" d="M787.42,539a1,1,0,0,0-1.29,1.53A1,1,0,0,0,787.42,539Z"/><path class="cls-2" d="M81.94,592.32c-2.57,0-2.58,4,0,4S84.52,592.32,81.94,592.32Z"/><path class="cls-2" d="M376.61,628.32c-2.57,0-2.58,4,0,4S379.19,628.32,376.61,628.32Z"/><path class="cls-3" d="M473,562a2,2,0,0,0-2.74-.72l-1.33.67a2,2,0,0,0-.72,2.74,2,2,0,0,0,2.74.72l1.33-.67A2,2,0,0,0,473,562Z"/><path class="cls-3" d="M483.94,568.65a1,1,0,0,0,0,2A1,1,0,0,0,483.94,568.65Z"/><path class="cls-3" d="M395.28,608.65a1,1,0,0,0,0,2A1,1,0,0,0,395.28,608.65Z"/><path class="cls-3" d="M235.28,634.65a1,1,0,0,0,0,2A1,1,0,0,0,235.28,634.65Z"/><path class="cls-3" d="M82.61,574a1,1,0,0,0,0,2A1,1,0,0,0,82.61,574Z"/><path class="cls-3" d="M65.28,570a1,1,0,0,0,0,2A1,1,0,0,0,65.28,570Z"/><path class="cls-4" d="M85.94,560.65a1,1,0,0,0,0,2A1,1,0,0,0,85.94,560.65Z"/><path class="cls-4" d="M416.61,582a1,1,0,0,0,0,2A1,1,0,0,0,416.61,582Z"/><path class="cls-4" d="M399.28,624.65a1,1,0,0,0,0,2A1,1,0,0,0,399.28,624.65Z"/><path class="cls-4" d="M353.28,605.32a1,1,0,0,0,0,2A1,1,0,0,0,353.28,605.32Z"/><path class="cls-4" d="M137.94,600.65a1,1,0,0,0,0,2A1,1,0,0,0,137.94,600.65Z"/><path class="cls-4" d="M354.61,646a1,1,0,0,0,0,2A1,1,0,0,0,354.61,646Z"/><path class="cls-4" d="M480.61,648.65a1,1,0,0,0,0,2A1,1,0,0,0,480.61,648.65Z"/><path class="cls-2" d="M291.28,624a1,1,0,0,0,0,2A1,1,0,0,0,291.28,624Z"/><path class="cls-2" d="M521.28,635.32a1,1,0,0,0,0,2A1,1,0,0,0,521.28,635.32Z"/><path class="cls-2" d="M63.28,610a1,1,0,0,0,0,2A1,1,0,0,0,63.28,610Z"/><path class="cls-2" d="M72.61,648a1,1,0,0,0,0,2A1,1,0,0,0,72.61,648Z"/><path class="cls-3" d="M734.74,679.13a2,2,0,0,0-1.62-2.32l-1.45-.35a2,2,0,0,0-2.32,1.62A2,2,0,0,0,731,680.4l1.45,0.35A2,2,0,0,0,734.74,679.13Z"/><path class="cls-3" d="M765,619.13a1,1,0,0,0-1.29,1.53A1,1,0,0,0,765,619.13Z"/><path class="cls-3" d="M745.37,627.84a1,1,0,0,0-1.29,1.53A1,1,0,0,0,745.37,627.84Z"/><path class="cls-3" d="M763.46,658a1,1,0,0,0-1.29,1.53A1,1,0,0,0,763.46,658Z"/><path class="cls-4" d="M860.2,574.86a1,1,0,0,0-1.29,1.53A1,1,0,0,0,860.2,574.86Z"/><path class="cls-4" d="M773.9,595.22a1,1,0,0,0-1.29,1.53A1,1,0,0,0,773.9,595.22Z"/><path class="cls-4" d="M810.9,631a1,1,0,0,0-1.29,1.53A1,1,0,0,0,810.9,631Z"/><path class="cls-4" d="M703.83,460.24a1,1,0,0,0-1.29,1.53A1,1,0,0,0,703.83,460.24Z"/><path class="cls-4" d="M676.54,467.69a1,1,0,0,0-1.29,1.53A1,1,0,0,0,676.54,467.69Z"/><path class="cls-4" d="M750.65,465.84a1,1,0,0,0-1.29,1.53A1,1,0,0,0,750.65,465.84Z"/><path class="cls-4" d="M762.1,363.67a1,1,0,0,0-1.29,1.53A1,1,0,0,0,762.1,363.67Z"/><path class="cls-4" d="M562.42,305.39a1,1,0,0,0-1.29,1.53A1,1,0,0,0,562.42,305.39Z"/><path class="cls-4" d="M527.06,358.45a1,1,0,0,0-1.29,1.53A1,1,0,0,0,527.06,358.45Z"/><path class="cls-4" d="M570.61,416.35a1,1,0,0,0-1.29,1.53A1,1,0,0,0,570.61,416.35Z"/><path class="cls-2" d="M590.49,255.78a1,1,0,0,0-1.29,1.53A1,1,0,0,0,590.49,255.78Z"/><path class="cls-2" d="M530.55,389.38a1,1,0,0,0-1.29,1.53A1,1,0,0,0,530.55,389.38Z"/><path class="cls-2" d="M833.67,440.08a1,1,0,0,0-1.29,1.53A1,1,0,0,0,833.67,440.08Z"/><path class="cls-2" d="M936.91,303.86a1,1,0,0,0-1.29,1.53A1,1,0,0,0,936.91,303.86Z"/><path class="cls-3" d="M660,360c-2-1.66-4.55,1.38-2.59,3.05S662,361.66,660,360Z"/><path class="cls-3" d="M618,351.87a1,1,0,0,0-1.29,1.53A1,1,0,0,0,618,351.87Z"/><path class="cls-3" d="M683.42,376.75a1,1,0,0,0-1.29,1.53A1,1,0,0,0,683.42,376.75Z"/><path class="cls-3" d="M620.09,325.69a1,1,0,0,0-1.29,1.53A1,1,0,0,0,620.09,325.69Z"/><path class="cls-4" d="M701.8,393.21a1,1,0,0,0-1.29,1.53A1,1,0,0,0,701.8,393.21Z"/><path class="cls-4" d="M680.69,326.37a1,1,0,0,0-1.29,1.53A1,1,0,0,0,680.69,326.37Z"/><path class="cls-2" d="M713.11,358.23a1,1,0,0,0-1.29,1.53A1,1,0,0,0,713.11,358.23Z"/></svg>