<svg id="OBJECTS" xmlns="http://www.w3.org/2000/svg" viewBox="0 0 154.22 154.22"><defs><style>.cls-1{fill:#73d1d9;}.cls-2{fill:#3ea92a;}.cls-3{opacity:0.2;}.cls-4{fill:#632063;}</style></defs><title>bumi</title><circle class="cls-1" cx="77.12" cy="77.11" r="53.89"/><path class="cls-2" d="M-255.84,281.1c0.84,0.79-.22,3.49.11,4.59a7.79,7.79,0,0,0,2,3.31,2.4,2.4,0,0,0,1.92.32,1.83,1.83,0,0,0,.21-1.49c-0.27-.84-2.13-1.74-2.46-2.56s-0.56-2.7,0-3.31a1.21,1.21,0,0,1,1.18-.11c0.61,0.52-.1,2.46.21,3.2,0.54,1.27,3.61,2.68,3.74,4.06,0,0.5-1.05,1.2-1.07,1.71a6.1,6.1,0,0,0,2,3.63c0.86,0.61,3.28,1.33,4.16.75,0.2-.14,0-0.83.21-1a2,2,0,0,1,1.81.43c0.23,0.26-.14,1.14.11,1.39,0.6,0.61,2.66-.08,3.42.32,1.14,0.6,2.17,3.35,3.31,3.95,0.95,0.5,3.49-.31,4.27.43,0.52,0.49.41,2.23,0.11,2.88s-2.36,1.36-2.77,2.13a8.25,8.25,0,0,0-.32,4.59c0.49,1.66,3.52,3.94,4.16,5.55,0.18,0.45-.16,1.61.21,1.92s1.38-.24,1.82-0.11a6.72,6.72,0,0,1,3.09,2.45c1,2.2-1.78,7.86-.21,9.71,0.19,0.22,1-.22,1.17,0,0.65,0.76-.89,3-0.64,3.95,0.16,0.63,1.39,1.42,1.6,2,0.41,1.18-.12,3.77,0,5,0.2,2.2.31,4.32,5.76,6.72,0.74,0.33,3.67.55,3.2-.53-0.29-.68-1.93-1.32-2.14-2s1.35-2.69.85-3.42c-0.23-.33-1.25,0-1.6-0.21a1.79,1.79,0,0,1-.85-1.07c0-.43,1.11-0.78,1.28-1.17a0.93,0.93,0,0,0,0-.64c-0.21-.32-1.15-0.34-1.39-0.64a1,1,0,0,1,0-1c1.3-1.14,3.84.35,6.08-3.31,0.8-1.3,3.3-3.42,3.63-4.91,0.22-1-1.09-3-.85-4.05a1.8,1.8,0,0,1,.75-1c0.78-.31,2.49.72,3.31,0.53a4.9,4.9,0,0,0,2.35-1.6c0.92-1.54,0-5.51.75-7.15,0.41-.92,2.31-2.05,2.67-3,0.16-.42.37-1.56,0-1.81-0.86-.6-0.47-0.43-3.31-2.56-1.2-.9-4.49-0.32-6-0.53-0.79-.11-2.56-0.49-3-1.17s0.4-2.1.21-2.77a4.59,4.59,0,0,0-1.49-2.13c-0.77-.43-2.75.22-3.52-0.21s-1.43-2.93-2.35-3.41a1.52,1.52,0,0,0-1.17,0c-0.15.12-.06,0.63-0.21,0.75a4,4,0,0,1-3.2.11c-1.52-.85-0.88-2.56-6.94.64-1,.53-3.73.21-4.48-0.64s0.63-3.78-.11-4.7c-0.52-.64-2.81,0-3.2-0.75s1.4-2.27,1.07-3a1.78,1.78,0,0,0-1.39-.53c-1.16.14-2.71,2.36-3.84,2.67-2.06.56-9.22-3.93,1.81-8.32,1.71-.68,6.07-1.63,7.36-0.32,0.34,0.34-.36,1.51-0.11,1.92s1.49,1.16,1.92.85c0.66-.46-0.06-2.49.32-3.2,0.72-1.36,3.94-2.62,4.7-3.95,0.16-.28,0-1,0.21-1.28,1-1.73,5-3.45,6.4-4.91,0.68-.71,1.29-3,2.24-3.2,0.44-.11,1.15.92,1.6,0.85a1.24,1.24,0,0,0,.85-0.85c-0.06-.43-1.29-0.48-1.49-0.85s0.11-2,2-.32,2.33-.25,3.09-0.43a0.86,0.86,0,0,1,.75.53,3,3,0,0,1-.64.53,1.89,1.89,0,0,0,0,1.39c0.51,0.7,2.54,1.47,3.31,1.07a1.93,1.93,0,0,0,.53-1.81c-0.23-.46-1.63-0.32-1.92-0.75a0.94,0.94,0,0,1,0-.75c0.21-.32,1.18-0.32,1.39-0.64a2.41,2.41,0,0,0,0-1.71c-0.27-.55-1.63-1-1.92-1.49s0.35-2.7-.32-3.09-1.79,1-2.45,1.07a1.6,1.6,0,0,1-1.07-.11c-0.3-.34.26-1.44,0-1.81a5.32,5.32,0,0,0-3.74-1.39,3.29,3.29,0,0,0-1.81,1.28c-0.47.9,0.66,3.29,0,4.05-0.46.53-2.2,0-2.77,0.43s-0.8,2.13-1.39,2.56a1.27,1.27,0,0,1-1.07.21c-0.6-.49.54-2.54,0-3.09-0.89-.91-9.34-0.7-1-5,0.88-.45,2.73-2,3.63-1.6,0.37,0.18.07,1.39,0.43,1.6a1.6,1.6,0,0,0,1.39-.32c0.22-.24,0-1.08.21-1.28s1,0.24,1.28.11c0.71-.31,1.28-2,1.92-2.45,0.84-.59,4.06-0.64,4.06-0.64a2.53,2.53,0,0,1,.75,1.07c-0.14,1-3.3,1.49-3.09,2.45,0.26,1.18,3.6,1.7,4.7,1.17,0.34-.17.33-1.17,0.64-1.39,0.53-.37,2.07.2,2.56-0.21a2,2,0,0,0,.43-1.71c-0.16-.3-1.08-0.16-1.28-0.43a4.28,4.28,0,0,1-.11-1.81s-7.49-6.28-10.35-.85c-0.25.47,0.18,1.77-.21,2.13a2.23,2.23,0,0,1-2.13,0A2.06,2.06,0,0,1-220,254c0.24-.52,2-0.84,1.81-1.39-0.29-.94-3.07-0.68-3.95-0.21-0.41.22-1.17,1.18-1,1.6,0.11,0.22.79-.06,1,0.11a1.55,1.55,0,0,1,.21,1.49c-0.41.46-2-.52-2.45-0.11-0.16.15,0,.72-0.21,0.85-0.71.57-3,.76-3.63,0.11a1.54,1.54,0,0,1,.11-1.6c0.51-.38,2,0.29,2.56,0a2.59,2.59,0,0,0,1.28-1.71,1.29,1.29,0,0,0-1-.75,2.69,2.69,0,0,0-1,.85c-0.5.45,0,.5-2.33-1.37-0.76-.62-3.92-0.05-3.92-0.05l-2,2,1.73,0.05-0.6,1.46s2.29-.29,2.77.21a0.79,0.79,0,0,1-.11.75c-0.56.59-3.2,0.64-3.2,0.64l-1-1.6-2.35-.64-1.65-.24A54.12,54.12,0,0,0-258.29,276l0.21,0.44A8,8,0,0,0-255.84,281.1Z" transform="translate(287.23 -223)"/><ellipse class="cls-2" cx="69.2" cy="50.81" rx="1.01" ry="0.75"/><path class="cls-2" d="M-214.78,272.63c-0.31.2-1.28-.3-1.49,0a1.44,1.44,0,0,0,.43,1.28,1.46,1.46,0,0,0,1.17.21c0.25-.14.16-1,0.43-1.07s0.83,0.59,1.07.43a1.7,1.7,0,0,0,0-1.81,1.32,1.32,0,0,0-1.17,0C-214.58,271.81-214.56,272.49-214.78,272.63Z" transform="translate(287.23 -223)"/><path class="cls-2" d="M-178.85,263c0.32,0.37.33,1.56,0.75,1.81s1.79-.78,2.24-0.43a2.26,2.26,0,0,1,.11,2.35c-0.74.73-3.25-.19-4.16,0.32s-1.31,2.58-2.13,3c-0.6.29-2.16-.54-2.67-0.11a2.62,2.62,0,0,0-.32,2.45c0.12,0.18.72,0,.85,0.21a1.69,1.69,0,0,1,0,1.6c-0.72.68-3-.25-3.95-0.21a1.55,1.55,0,0,0-1.71,1.71c0,0.78-.08,2.5.43,3.1a3.4,3.4,0,0,0,2.13.64,8.5,8.5,0,0,0,3.42-1.6c0.83-.67,1.57-3,2.56-3.42,0.6-.24,2,0.66,2.56.43s0.84-1.78,1.39-1.71,0.18,1.27.43,1.6c0.64,0.86,3.23,1.25,3.63,2.24,0.21,0.51-.82,1.66-0.53,2.13a0.49,0.49,0,0,0,.43.11c0.63-.22,1.6-2.13,1.6-2.13a17.35,17.35,0,0,1-2.88-2.56c-0.22-.35-0.67-1.27-0.43-1.6s1.71-.3,2.24-0.11a5.27,5.27,0,0,1,2.24,2c0.24,0.54,0,1.83.32,2.35s1.5,2.12,2.13,1.81c0.9-.43.21-2.35,2-3.42A9.73,9.73,0,0,0-166,278a3.88,3.88,0,0,0,1.39,1.71c1,0.43,4.29-.27,4.29-0.27a54,54,0,0,0-15.7-21l-0.55,1.15S-181.44,260-178.85,263Z" transform="translate(287.23 -223)"/><path class="cls-2" d="M-158.76,283.75s-4.66.69-6.1,0.19c-0.63-.22-1.41-1.48-2-1.71s-2.32-.45-2.88,0c-0.28.22-.06,1.14-0.32,1.39-1.24,1.16-4.2.67-6.62-1.6-0.53-.49.5-2.37,0-2.88-1.1-1.13-4.81-.1-6.3.43-0.4.14-1,.83-1.39,1-1,.33-3.26-0.23-4.27.11a4.73,4.73,0,0,0-2.24,1.6c-0.28.61,0.3,2.07,0,2.67-0.82,1.62-5.21,2.58-5.87,4.27a2.06,2.06,0,0,0,.32,1.6c0.21,0.21,1,0,1.17.21a2.22,2.22,0,0,1-.32,2c-0.17.17-.8-0.07-1,0.11-0.79.87-.5,3.59-0.11,4.7,0.67,1.89,3.39,5.29,5.23,6.08a3.2,3.2,0,0,0,2.45-.11c0.12-.11,0-0.54.11-0.64,0.77-.66,3.17.49,4.06,0,0.31-.17.44-1,0.75-1.17a3.88,3.88,0,0,1,2.67-.11c0.46,0.23.72,1.47,1.17,1.71,0.64,0.34,2.36-.49,2.88,0,0.93,0.88,0,3.89.32,5.12,0.48,1.64,3.24,4.27,3.31,6,0,1.11-1.58,3-1.81,4.06a4.09,4.09,0,0,0,0,1.92c0.25,0.53,1.57,1,1.81,1.49,0.43,0.95-.44,3.18-0.11,4.16,0.23,0.68,1.57,1.56,1.81,2.24,0.36,1,0,4.38,0,4.38h4.63a53.64,53.64,0,0,0,11.16-32.82A53.84,53.84,0,0,0-158.76,283.75Z" transform="translate(287.23 -223)"/><g class="cls-3"><path d="M-236.2,300.11c0,37.59,26.07,53.89,26.07,53.89A53.89,53.89,0,0,1-264,300.11a53.89,53.89,0,0,1,53.89-53.89S-236.2,263.89-236.2,300.11Z" transform="translate(287.23 -223)"/></g><path class="cls-4" d="M-210.12,377.22a77.2,77.2,0,0,1-77.11-77.11A77.2,77.2,0,0,1-210.12,223,77.2,77.2,0,0,1-133,300.11,77.2,77.2,0,0,1-210.12,377.22Zm0-145A68,68,0,0,0-278,300.11,68,68,0,0,0-210.12,368a68,68,0,0,0,67.88-67.88A68,68,0,0,0-210.12,232.23Z" transform="translate(287.23 -223)"/></svg>