<svg xmlns="http://www.w3.org/2000/svg" xmlns:xlink="http://www.w3.org/1999/xlink" viewBox="0 0 331.63 323.25"><defs><style>.cls-1,.cls-13,.cls-14,.cls-15{fill:none;}.cls-2{isolation:isolate;}.cls-3{fill:url(#linear-gradient);}.cls-4{fill:url(#linear-gradient-2);}.cls-5{fill:url(#linear-gradient-3);}.cls-6{fill:url(#linear-gradient-4);}.cls-7{fill:url(#linear-gradient-5);}.cls-8{fill:url(#linear-gradient-6);}.cls-9{fill:url(#linear-gradient-7);}.cls-10{fill:url(#linear-gradient-8);}.cls-11{fill:url(#linear-gradient-9);}.cls-12{fill:#ff3a3d;}.cls-13{stroke:#00bff2;stroke-width:2px;}.cls-13,.cls-14,.cls-15{stroke-linecap:round;stroke-linejoin:round;}.cls-14{stroke:#ff3a3d;}.cls-15{stroke:#ffa700;}.cls-16{opacity:0.2;}.cls-17{fill:#ffa700;}.cls-18{opacity:0.7;}.cls-19{mix-blend-mode:overlay;}.cls-20{clip-path:url(#clip-path);}.cls-21{fill:#ffe17a;}</style><linearGradient id="linear-gradient" x1="1032.66" y1="322.67" x2="1038.79" y2="332.81" gradientTransform="translate(8.86 19.24)" gradientUnits="userSpaceOnUse"><stop offset="0" stop-color="#ffa700"/><stop offset="0.01" stop-color="#ffa700" stop-opacity="0.98"/><stop offset="0.26" stop-color="#ffa700" stop-opacity="0.64"/><stop offset="0.48" stop-color="#ffa700" stop-opacity="0.37"/><stop offset="0.67" stop-color="#ffa700" stop-opacity="0.17"/><stop offset="0.8" stop-color="#ffa700" stop-opacity="0.05"/><stop offset="0.88" stop-color="#ffa700" stop-opacity="0"/></linearGradient><linearGradient id="linear-gradient-2" x1="1068.99" y1="203.64" x2="1083.96" y2="228.4" gradientTransform="translate(-5.08 15.04)" gradientUnits="userSpaceOnUse"><stop offset="0" stop-color="#00bc88"/><stop offset="0.1" stop-color="#00bc88" stop-opacity="0.86"/><stop offset="0.38" stop-color="#00bc88" stop-opacity="0.49"/><stop offset="0.61" stop-color="#00bc88" stop-opacity="0.23"/><stop offset="0.78" stop-color="#00bc88" stop-opacity="0.06"/><stop offset="0.88" stop-color="#00bc88" stop-opacity="0"/></linearGradient><linearGradient id="linear-gradient-3" x1="1298.51" y1="396.13" x2="1313.48" y2="420.88" gradientTransform="translate(16.78 -14.55)" xlink:href="#linear-gradient"/><linearGradient id="linear-gradient-4" x1="888.19" y1="745.46" x2="896.93" y2="759.91" gradientTransform="translate(1941.49 -775.67) rotate(90)" xlink:href="#linear-gradient"/><linearGradient id="linear-gradient-5" x1="1133.9" y1="921.55" x2="1140.44" y2="932.37" gradientTransform="translate(218.68 -625.82)" gradientUnits="userSpaceOnUse"><stop offset="0" stop-color="#fb53ad"/><stop offset="0.25" stop-color="#fb53ad" stop-opacity="0.65"/><stop offset="0.48" stop-color="#fb53ad" stop-opacity="0.37"/><stop offset="0.66" stop-color="#fb53ad" stop-opacity="0.17"/><stop offset="0.8" stop-color="#fb53ad" stop-opacity="0.05"/><stop offset="0.88" stop-color="#fb53ad" stop-opacity="0"/></linearGradient><linearGradient id="linear-gradient-6" x1="1123.31" y1="172.39" x2="1131.79" y2="186.41" gradientTransform="translate(-10 9.09)" xlink:href="#linear-gradient-5"/><linearGradient id="linear-gradient-7" x1="1214.88" y1="397.06" x2="1223.36" y2="411.08" gradientTransform="translate(16.85 -3.83)" xlink:href="#linear-gradient-2"/><linearGradient id="linear-gradient-8" x1="1317.5" y1="164.23" x2="1328.72" y2="182.78" gradientTransform="translate(-12.18 -14.85)" gradientUnits="userSpaceOnUse"><stop offset="0" stop-color="#558fff"/><stop offset="0.01" stop-color="#558fff" stop-opacity="0.98"/><stop offset="0.26" stop-color="#558fff" stop-opacity="0.64"/><stop offset="0.48" stop-color="#558fff" stop-opacity="0.37"/><stop offset="0.67" stop-color="#558fff" stop-opacity="0.17"/><stop offset="0.8" stop-color="#558fff" stop-opacity="0.05"/><stop offset="0.88" stop-color="#558fff" stop-opacity="0"/></linearGradient><linearGradient id="linear-gradient-9" x1="1092.52" y1="368.37" x2="1118.19" y2="410.83" gradientTransform="translate(16.05 10.14)" xlink:href="#linear-gradient-8"/><clipPath id="clip-path" transform="translate(-1037.85 -107.13)"><circle class="cls-1" cx="1218.98" cy="269.15" r="49.4"/></clipPath></defs><title>galaxy</title><g class="cls-2"><g id="OBJECTS"><circle class="cls-3" cx="1044.8" cy="347.34" r="6.95" transform="translate(-1072.55 23.57) rotate(-7.04)"/><circle class="cls-4" cx="1071.93" cy="231.94" r="16.98" transform="translate(-1058.2 26.03) rotate(-7.04)"/><circle class="cls-5" cx="1323.31" cy="394.84" r="16.98" transform="translate(-1076.27 58.07) rotate(-7.04)"/><circle class="cls-6" cx="1188.27" cy="117.26" r="9.91" transform="translate(-133.96 1169.81) rotate(-81.86)"/><circle class="cls-7" cx="1356.16" cy="301.55" r="7.42" transform="translate(-809.66 1005.47) rotate(-48.25)"/><circle class="cls-8" cx="1117.85" cy="188.99" r="9.62" transform="translate(-1052.59 31.33) rotate(-7.04)"/><circle class="cls-9" cx="1236.27" cy="400.74" r="9.62" transform="translate(-1077.65 47.45) rotate(-7.04)"/><circle class="cls-10" cx="1311.33" cy="159.31" r="12.72" transform="translate(-1047.49 54.83) rotate(-7.04)"/><circle class="cls-11" cx="1122.32" cy="401.26" r="29.12" transform="translate(-1078.57 33.48) rotate(-7.04)"/><path class="cls-12" d="M1180.29,123.49a1.17,1.17,0,0,0-1.81,1.48A1.17,1.17,0,0,0,1180.29,123.49Z" transform="translate(-1037.85 -107.13)"/><path class="cls-13" d="M1152.86,399.06c16.35,3.65,27,7.72,26.64,10.66-0.6,4.5-26.83,4.68-58.58.42s-57-11.37-56.39-15.87c0.4-3,12-4.06,29-3.22" transform="translate(-1037.85 -107.13)"/><path class="cls-14" d="M1201.4,118.45c6.53,3,10.65,5.75,10.21,6.95-0.67,1.83-11.71-.52-24.66-5.25s-22.9-10.06-22.23-11.89c0.44-1.21,5.43-.6,12.5,1.33" transform="translate(-1037.85 -107.13)"/><path class="cls-15" d="M1361.82,295.29c3.79-2.45,6.6-3.73,7.09-3.1,0.75,1-4.18,6-11,11.32s-13,8.79-13.71,7.82c-0.5-.64,1.49-3.07,4.87-6.18" transform="translate(-1037.85 -107.13)"/><g class="cls-16"><circle class="cls-17" cx="181.13" cy="162.02" r="102.02"/></g><g class="cls-16"><circle class="cls-17" cx="181.13" cy="162.02" r="85.09"/></g><g class="cls-16"><circle class="cls-17" cx="181.13" cy="162.02" r="66.73"/></g><g class="cls-18"><circle class="cls-17" cx="181.13" cy="162.02" r="49.4"/></g><g class="cls-19"><g class="cls-20"><g class="cls-16"><path class="cls-21" d="M1288.65,267.38a2.68,2.68,0,0,0-.68-0.67,2.65,2.65,0,0,0-1.49-.46h-11.87a2.66,2.66,0,0,0-.48,0h0a2.65,2.65,0,0,0-.43.12l-0.05,0a2.66,2.66,0,0,0-.38.19l-0.05,0a2.66,2.66,0,0,0-.34.25l0,0a2.69,2.69,0,0,0-.29.31l0,0a2.67,2.67,0,0,0-.24.37v0a2.64,2.64,0,0,0-.28.92h0a2.66,2.66,0,0,0,2.65,3h11.87a2.65,2.65,0,0,0,1.27-.32l0.3-.19A2.67,2.67,0,0,0,1288.65,267.38Z" transform="translate(-1037.85 -107.13)"/><path class="cls-21" d="M1275.4,276.93h-16.3a2.66,2.66,0,0,1-2.78-2.69c0-.09,0-0.18,0-0.27a2.67,2.67,0,0,1,2.65-2.38h5.38a2.74,2.74,0,0,0,2.77-2.4,2.67,2.67,0,0,0-2.65-2.93h-9.71a2.67,2.67,0,0,1-2.67-2.67,2.67,2.67,0,0,0-2.67-2.67h-5a2.37,2.37,0,0,1,0-4.75h16a2.66,2.66,0,0,0,2.76-3,2.66,2.66,0,0,1,2.66-2.51h5.47a2.87,2.87,0,0,0,1.86-.68,2.68,2.68,0,0,0,.62-0.76,2.52,2.52,0,0,0,.29-1,2.67,2.67,0,0,0-2.65-2.93h-16.3a2.87,2.87,0,0,1-1-.18,2.67,2.67,0,0,1-1.77-2.22h0a2.71,2.71,0,0,1,0-.55,2.67,2.67,0,0,1,2.65-2.37h15.08a2.74,2.74,0,0,0,2.77-2.4,2.67,2.67,0,0,0-2.65-2.93h-19.41c-1.47,0-2.67-.61-2.67-2.08h0a2.67,2.67,0,0,0-2.67-2.67h-28a2.74,2.74,0,0,1-2.77-2.4,2.67,2.67,0,0,1,2.65-2.93h17.36a2.86,2.86,0,0,0,.51,0l0.25-.07,0.23-.06a2.86,2.86,0,0,0,.35-0.17l0.1,0a2.82,2.82,0,0,0,.39-0.28h0a2.58,2.58,0,0,0,.92-1.7h0v0a2.67,2.67,0,0,0-2.65-2.93h-37.64a2.68,2.68,0,0,0-2.63,2.72,2.67,2.67,0,0,1-2.67,2.61h-7.48a2.74,2.74,0,0,0-2.77,2.4,2.67,2.67,0,0,0,2.65,2.93h18.32a2.66,2.66,0,0,1,2.78,2.69c0,0.09,0,.18,0,0.27a2.67,2.67,0,0,1-2.65,2.38h-10.09a2.74,2.74,0,0,0-2.77,2.4,2.67,2.67,0,0,0,2.65,2.93h14.42a2.67,2.67,0,0,1,2.67,2.67,2.67,2.67,0,0,0,2.67,2.67h4.07a2.37,2.37,0,0,1,0,4.75h-35.9a2.85,2.85,0,0,0-.81.13h-12.11a2.68,2.68,0,0,0-2.63,2.72,2.67,2.67,0,0,1-2.67,2.61h-5.47a2.87,2.87,0,0,0-1.86.68,2.68,2.68,0,0,0-.62.76,2.52,2.52,0,0,0-.29,1,2.67,2.67,0,0,0,2.65,2.93h16.3a2.87,2.87,0,0,1,1,.18,2.67,2.67,0,0,1,1.77,2.22h0a2.75,2.75,0,0,1,0,.28c0,0.09,0,.18,0,0.27a2.67,2.67,0,0,1-2.65,2.37h-5.38a2.74,2.74,0,0,0-2.77,2.4,2.67,2.67,0,0,0,2.65,2.93h9.71c1.47,0,2.67.61,2.67,2.08h0a2.67,2.67,0,0,0,2.67,2.67h43a2.74,2.74,0,0,1,2.77,2.4,2.67,2.67,0,0,1-2.34,2.91h-47.34A2.68,2.68,0,0,0,1176,285a2.67,2.67,0,0,1-2.67,2.61h-5.47a2.87,2.87,0,0,0-1.86.68,2.68,2.68,0,0,0-.62.76,2.52,2.52,0,0,0-.29,1,2.67,2.67,0,0,0,2.65,2.93h16.3a2.87,2.87,0,0,1,1,.18,2.67,2.67,0,0,1,1.77,2.22h0a2.72,2.72,0,0,1,0,.28c0,0.09,0,.18,0,0.27a2.67,2.67,0,0,1-2.65,2.37H1169.1a2.74,2.74,0,0,0-2.77,2.4,2.67,2.67,0,0,0,2.65,2.93h19.41c1.47,0,2.67.61,2.67,2.08h0a2.67,2.67,0,0,0,2.67,2.67h19a2.74,2.74,0,0,1,2.77,2.4,2.67,2.67,0,0,1-2.65,2.93h-13.14a2.86,2.86,0,0,0-.51,0l-0.25.07-0.23.06a2.85,2.85,0,0,0-.35.17l-0.1,0a2.82,2.82,0,0,0-.39.28h0a2.58,2.58,0,0,0-.92,1.7h0v0a2.67,2.67,0,0,0,2.65,2.93h28.55a2.68,2.68,0,0,0,2.63-2.72,2.67,2.67,0,0,1,2.67-2.61h7.48a2.74,2.74,0,0,0,2.77-2.4,2.67,2.67,0,0,0-2.65-2.93h-13.45a2.66,2.66,0,0,1-2.78-2.69c0-.09,0-0.18,0-0.27a2.67,2.67,0,0,1,2.65-2.38h5.38a2.74,2.74,0,0,0,2.77-2.4,2.67,2.67,0,0,0-2.65-2.93h-9.71a2.67,2.67,0,0,1-2.67-2.67,2.67,2.67,0,0,0-2.67-2.67h-4.07a2.37,2.37,0,0,1-.19-4.73h50.82a2.68,2.68,0,0,0,2.63-2.72,2.67,2.67,0,0,1,2.67-2.61h5.47a2.74,2.74,0,0,0,2.77-2.4A2.67,2.67,0,0,0,1275.4,276.93Z" transform="translate(-1037.85 -107.13)"/><path class="cls-21" d="M1157.89,272.14h0a2.64,2.64,0,0,0,.43-0.12l0.05,0a2.66,2.66,0,0,0,.38-0.19l0.05,0a2.68,2.68,0,0,0,.34-0.25l0,0a2.67,2.67,0,0,0,.29-0.31l0,0a2.67,2.67,0,0,0,.24-0.37v0a2.64,2.64,0,0,0,.28-0.92h0a2.66,2.66,0,0,0-2.65-3H1148a2.67,2.67,0,1,0,0,5.33h9.42A2.67,2.67,0,0,0,1157.89,272.14Z" transform="translate(-1037.85 -107.13)"/><path class="cls-21" d="M1177.86,240.19a2.65,2.65,0,0,0,1.49.46h4.71a2.67,2.67,0,0,0,.48,0h0a2.65,2.65,0,0,0,.43-0.12l0.05,0a2.66,2.66,0,0,0,.38-0.19l0.05,0a2.68,2.68,0,0,0,.34-0.25l0,0a2.7,2.7,0,0,0,.29-0.31l0,0a2.65,2.65,0,0,0,.24-0.37v0a2.65,2.65,0,0,0,.28-0.92h0a2.66,2.66,0,0,0-2.65-3h-4.71a2.65,2.65,0,0,0-1.27.32l-0.3.19A2.67,2.67,0,0,0,1177.86,240.19Z" transform="translate(-1037.85 -107.13)"/><path class="cls-21" d="M1278.43,240.05h3.68a2.67,2.67,0,1,0,0-5.33h-3.68a2.68,2.68,0,0,0-.48,0h0a2.62,2.62,0,0,0-.43.12l-0.05,0a2.65,2.65,0,0,0-.38.19l-0.05,0a2.69,2.69,0,0,0-.34.25l0,0a2.67,2.67,0,0,0-.29.31l0,0a2.67,2.67,0,0,0-.24.37v0a2.65,2.65,0,0,0-.28.92h0a2.71,2.71,0,0,0,0,.29A2.67,2.67,0,0,0,1278.43,240.05Z" transform="translate(-1037.85 -107.13)"/><path class="cls-21" d="M1252.34,298.11a2.65,2.65,0,0,0-1.49-.46h-9.42a2.68,2.68,0,0,0-.48,0h0a2.65,2.65,0,0,0-.43.12l-0.05,0a2.63,2.63,0,0,0-.38.19l-0.05,0a2.67,2.67,0,0,0-.34.25l0,0a2.68,2.68,0,0,0-.29.31l0,0a2.67,2.67,0,0,0-.24.37v0a2.64,2.64,0,0,0-.28.92h0a2.66,2.66,0,0,0,2.65,3h9.42a2.65,2.65,0,0,0,1.27-.32l0.3-.19A2.67,2.67,0,0,0,1252.34,298.11Z" transform="translate(-1037.85 -107.13)"/><path class="cls-21" d="M1160.79,298.24h-2.73a2.67,2.67,0,1,0,0,5.33h2.73a2.68,2.68,0,0,0,.48,0h0a2.63,2.63,0,0,0,.43-0.12l0.05,0a2.63,2.63,0,0,0,.38-0.19l0.05,0a2.67,2.67,0,0,0,.34-0.25l0,0a2.67,2.67,0,0,0,.29-0.31l0,0a2.68,2.68,0,0,0,.24-0.37v0a2.65,2.65,0,0,0,.28-0.92h0A2.66,2.66,0,0,0,1160.79,298.24Z" transform="translate(-1037.85 -107.13)"/></g></g></g></g></g></svg>