<svg id="OBJECTS" xmlns="http://www.w3.org/2000/svg" viewBox="0 0 154.22 154.22"><defs><style>.cls-1{fill:#ce6f3e;}.cls-2{fill:#f8e2b2;}.cls-3{fill:#792f10;}.cls-4{fill:#bd7e48;}.cls-5{fill:#ed5d21;}.cls-6{opacity:0.2;}.cls-7{fill:#632063;}</style></defs><title>jupiter</title><circle class="cls-1" cx="1151.79" cy="300.04" r="53.89" transform="translate(-1101.18 245.25) rotate(-22.73)"/><path class="cls-2" d="M1123.25,345.83a54.2,54.2,0,0,0,11.66,5.49c0.38-11.09,36.18-16.22,68.82-36.45a54,54,0,0,0,1.44-6.55c-6.13,2.26-31.79,18.71-46.57,20.83C1144,331.25,1133.31,337.2,1123.25,345.83Z" transform="translate(-1074.68 -223)"/><path class="cls-3" d="M1132.92,292.29c10.16-11.65,10.34-1.95,15.32-5.43,2.5-1.75,18.16-1.84,25-5.92,11.31-6.73,2-15.62,15.11-20.41q-1.84-1.69-3.82-3.19c-10.35,4-57.93,23-63.34,35,0,0-8.28,13.3-22.38,17.32q0.46,2.56,1.18,5.11C1106.87,311.28,1124.79,301.61,1132.92,292.29Z" transform="translate(-1074.68 -223)"/><path class="cls-4" d="M1181.18,255a54.2,54.2,0,0,0-13.69-6.35c-4.93,6.25-20,18.38-65.63,31.6a54.25,54.25,0,0,0-2.87,9.74C1109.43,284,1143.79,265.54,1181.18,255Z" transform="translate(-1074.68 -223)"/><path class="cls-3" d="M1134.91,351.32a53.88,53.88,0,0,0,17.3,2.76c3.24-8.3,15.74-8.83,26.13-14.67,9.46-5.32,16.66-16.21,23.36-18.65a54,54,0,0,0,2-5.89c-7.06,2.54-21,17.37-26.7,19.65C1139.51,349.49,1137.14,346.45,1134.91,351.32Z" transform="translate(-1074.68 -223)"/><path class="cls-5" d="M1108.4,332a53.61,53.61,0,0,0,14.85,13.82c8.53-17.51,19.93-16.45,32-22.84,5.15-2.72,16.24-7.8,20.6-8.43,14.78-2.13,23.17-4,29.3-6.24,0.21-1.4.36-2.82,0.47-4.24-6.11.93-9.75,3.57-15,4C1155,310.94,1140.5,314.37,1108.4,332Z" transform="translate(-1074.68 -223)"/><path class="cls-2" d="M1172.87,279.63c-6.86,4.08-19.37,2.61-22.42,2.6-4.86,0-7.37-1.59-17.53,10.06-3.74,4.29-9.56,8.65-15.42,12.45-6.87,4.46-13.79,8.14-17.48,10a54.49,54.49,0,0,0,2.16,6.24h0c5.65-5.7,10.87-6,14.9-6.7,8.56-1.48,9.77-4.61,31.56-14.54,12-5.46,14.68-6.74,26.29-12,18.1-8.27,16.87-13.35,23-15.52a53.51,53.51,0,0,0-9.58-11.69C1175.27,265.32,1184.18,272.9,1172.87,279.63Z" transform="translate(-1074.68 -223)"/><path class="cls-5" d="M1128.13,290.64c9.64-9,46.08-29.29,56.43-33.3-1.1-.84-2.22-1.64-3.38-2.38-9.74,2.76-19.27,6-28.22,9.52-10.33,4-19.89,8.23-28.12,12.14-12.05,5.72-21.26,10.74-25.85,13.33a53.59,53.59,0,0,0-.14,19.73c8.25-2.35,16-6.43,19.79-10.61C1121.31,296.09,1125.21,293.37,1128.13,290.64Z" transform="translate(-1074.68 -223)"/><path class="cls-2" d="M1167.49,248.61a54,54,0,0,0-7.92-1.76c-9.1,5.73-17.2,3-25,6-10.6,4.16-20,13.16-25.12,14.11a54.13,54.13,0,0,0-7.61,13.24c20.63-6,21.08-12.46,31.1-17.54C1145.12,256.49,1164.79,252,1167.49,248.61Z" transform="translate(-1074.68 -223)"/><path class="cls-4" d="M1104.66,326.14c0.42,0.76.85,1.51,1.3,2.25,10-14.33,25.34-10.92,54.6-19.49,12.34-3.61,32.5-13.29,45-13.79a53.8,53.8,0,0,0-3.33-14.14C1158.72,310.12,1140.38,300.55,1104.66,326.14Z" transform="translate(-1074.68 -223)"/><g class="cls-6"><path d="M1125.72,300.06c0,37.59,26.07,53.89,26.07,53.89a53.89,53.89,0,1,1,0-107.78S1125.72,263.84,1125.72,300.06Z" transform="translate(-1074.68 -223)"/></g><path class="cls-7" d="M1151.79,377.22a77.11,77.11,0,1,1,77.11-77.11A77.2,77.2,0,0,1,1151.79,377.22Zm0-145a67.88,67.88,0,1,0,67.88,67.88A68,68,0,0,0,1151.79,232.23Z" transform="translate(-1074.68 -223)"/></svg>