<svg id="OBJECTS" xmlns="http://www.w3.org/2000/svg" viewBox="0 0 318.41 77.86"><defs><style>.cls-1,.cls-2{fill:#fff;}.cls-2{font-size:49.16px;font-family:Gotham Bold;}</style></defs><title>logo</title><path class="cls-1" d="M742.24,23.11a38.93,38.93,0,0,0-77.46,0H641v7.8h23.73a38.93,38.93,0,0,0,77.46,0H766v-7.8H742.24Zm-38.73,35a31.16,31.16,0,0,1-30.87-27.22H683.7a20.19,20.19,0,0,0,39.62,0h11.06A31.16,31.16,0,0,1,703.51,58.13Zm19.81-35a20.19,20.19,0,0,0-39.62,0H672.64a31.11,31.11,0,0,1,61.74,0H723.32Z" transform="translate(-641.05 11.92)"/><text class="cls-2" transform="translate(148.61 55.57)">Galaxy</text></svg>