<svg id="OBJECTS" xmlns="http://www.w3.org/2000/svg" viewBox="0 0 154.22 154.22"><defs><style>.cls-1{fill:#e27f7f;}.cls-2{fill:#d84443;}.cls-3{opacity:0.2;}.cls-4{fill:#632063;}</style></defs><title>mars</title><circle class="cls-1" cx="77.13" cy="77.13" r="53.89"/><path class="cls-2" d="M-213.4,964.53c0-9.14-16.4-16.55-36.63-16.55-1.75,0-3.47.06-5.16,0.17A53.63,53.63,0,0,0-264,977.69c0,0.72,0,1.44.05,2.15A76.63,76.63,0,0,0-250,981.09C-229.8,981.09-213.4,973.67-213.4,964.53Z" transform="translate(287.22 -900.63)"/><path class="cls-2" d="M-215,933.33c0,9.29,16.77,16.82,37.45,16.82a79.48,79.48,0,0,0,13.12-1.06,53.84,53.84,0,0,0-44-25.25C-212.62,926.54-215,929.81-215,933.33Z" transform="translate(287.22 -900.63)"/><path class="cls-2" d="M-177,1009.58c0-3.75-25.39-6.78-56.71-6.78-8.48,0-16.51.22-23.74,0.62a54.07,54.07,0,0,0,9.63,12.73c4.51,0.14,9.24.21,14.11,0.21C-202.43,1016.36-177,1013.32-177,1009.58Z" transform="translate(287.22 -900.63)"/><path class="cls-2" d="M-205.26,965.35c0,2.7,16,4.88,35.82,4.88,4.45,0,8.71-.11,12.64-0.31a53.52,53.52,0,0,0-2.19-9.24c-3.31-.14-6.81-0.21-10.45-0.21C-189.22,960.46-205.26,962.65-205.26,965.35Z" transform="translate(287.22 -900.63)"/><path class="cls-2" d="M-175.68,984.34c-23.23,0-42.06,3-42.06,6.78s18.83,6.78,42.06,6.78c5.55,0,10.85-.17,15.7-0.49a53.48,53.48,0,0,0,3.23-12.35C-162.44,984.61-168.87,984.34-175.68,984.34Z" transform="translate(287.22 -900.63)"/><path class="cls-2" d="M-225.34,931.16c0-1.58-1.08-3-2.9-4.23A53.86,53.86,0,0,0-246.59,938a32.18,32.18,0,0,0,5.51.47C-232.39,938.48-225.34,935.2-225.34,931.16Z" transform="translate(287.22 -900.63)"/><path class="cls-2" d="M-215,1027.76c0-2.7-5.22-4.88-11.67-4.88a19.9,19.9,0,0,0-9.43,2A53.5,53.5,0,0,0-218,1031C-216.15,1030.14-215,1029-215,1027.76Z" transform="translate(287.22 -900.63)"/><ellipse class="cls-2" cx="51.63" cy="91.13" rx="6.31" ry="2.24"/><g class="cls-3"><path d="M-236.18,977.72c0,37.59,26.07,53.89,26.07,53.89A53.89,53.89,0,0,1-264,977.72a53.89,53.89,0,0,1,53.89-53.89S-236.18,941.5-236.18,977.72Z" transform="translate(287.22 -900.63)"/></g><path class="cls-4" d="M-210.11,1054.85a77.2,77.2,0,0,1-77.11-77.11,77.2,77.2,0,0,1,77.11-77.11A77.2,77.2,0,0,1-133,977.74,77.2,77.2,0,0,1-210.11,1054.85Zm0-145A68,68,0,0,0-278,977.74a68,68,0,0,0,67.88,67.88,68,68,0,0,0,67.88-67.88A68,68,0,0,0-210.11,909.86Z" transform="translate(287.22 -900.63)"/></svg>