<svg id="OBJECTS" xmlns="http://www.w3.org/2000/svg" viewBox="0 0 154.22 154.22"><defs><style>.cls-1{fill:#6c8ec1;}.cls-2{fill:#2c4974;}.cls-3{opacity:0.2;}.cls-4{fill:#632063;}</style></defs><title>neptunus</title><circle class="cls-1" cx="77.11" cy="77.11" r="53.89"/><ellipse class="cls-2" cx="89.84" cy="41.7" rx="14.65" ry="9.5"/><ellipse class="cls-2" cx="80.62" cy="75.62" rx="9.77" ry="4.07"/><ellipse class="cls-2" cx="41.27" cy="68.84" rx="5.7" ry="8.95"/><ellipse class="cls-2" cx="55.65" cy="93.26" rx="8.14" ry="6.51"/><circle class="cls-2" cx="99.07" cy="107.1" r="6.51"/><ellipse class="cls-2" cx="110.74" cy="71.55" rx="6.24" ry="4.61"/><ellipse class="cls-2" cx="50.77" cy="44.15" rx="4.61" ry="2.44"/><ellipse class="cls-2" cx="70.04" cy="118.5" rx="2.44" ry="3.26"/><g class="cls-3"><path d="M440.3,977.74c0,37.59,26.07,53.89,26.07,53.89a53.89,53.89,0,1,1,0-107.78S440.3,941.52,440.3,977.74Z" transform="translate(-389.24 -900.63)"/></g><path class="cls-4" d="M466.35,1054.85a77.11,77.11,0,1,1,77.11-77.11A77.2,77.2,0,0,1,466.35,1054.85Zm0-145a67.88,67.88,0,1,0,67.88,67.88A68,68,0,0,0,466.35,909.86Z" transform="translate(-389.24 -900.63)"/></svg>