<svg xmlns="http://www.w3.org/2000/svg" xmlns:xlink="http://www.w3.org/1999/xlink" viewBox="0 0 186.89 186.89"><defs><style>.cls-1{fill:none;}.cls-2{isolation:isolate;}.cls-3{opacity:0.2;}.cls-4{fill:#ffa700;}.cls-5{opacity:0.7;}.cls-6{mix-blend-mode:overlay;}.cls-7{clip-path:url(#clip-path);}.cls-8{fill:#ffe17a;}</style><clipPath id="clip-path" transform="translate(-1121.95 -179.12)"><circle class="cls-1" cx="1215.4" cy="272.57" r="45.25"/></clipPath></defs><title>sun</title><g class="cls-2"><g id="OBJECTS"><g class="cls-3"><circle class="cls-4" cx="93.45" cy="93.45" r="93.45"/></g><g class="cls-3"><circle class="cls-4" cx="93.45" cy="93.45" r="77.93"/></g><g class="cls-3"><circle class="cls-4" cx="93.45" cy="93.45" r="61.12"/></g><g class="cls-5"><circle class="cls-4" cx="93.45" cy="93.45" r="45.25"/></g><g class="cls-6"><g class="cls-7"><g class="cls-3"><path class="cls-8" d="M1279.21,271a2.46,2.46,0,0,0-.63-0.61,2.43,2.43,0,0,0-1.37-.42h-10.87a2.44,2.44,0,0,0-.44,0h0a2.43,2.43,0,0,0-.39.11l0,0a2.44,2.44,0,0,0-.35.17l0,0a2.44,2.44,0,0,0-.31.23l0,0a2.46,2.46,0,0,0-.27.29l0,0a2.44,2.44,0,0,0-.22.34v0a2.42,2.42,0,0,0-.25.84h0a2.44,2.44,0,0,0,2.43,2.71h10.87a2.43,2.43,0,0,0,1.16-.29l0.27-.17A2.44,2.44,0,0,0,1279.21,271Z" transform="translate(-1121.95 -179.12)"/><path class="cls-8" d="M1267.07,279.69h-14.93a2.44,2.44,0,0,1-2.55-2.46c0-.08,0-0.17,0-0.25a2.44,2.44,0,0,1,2.43-2.18H1257a2.51,2.51,0,0,0,2.54-2.2,2.44,2.44,0,0,0-2.43-2.68h-8.89a2.44,2.44,0,0,1-2.44-2.44,2.44,2.44,0,0,0-2.44-2.44h-4.57a2.17,2.17,0,0,1,0-4.35h14.66a2.44,2.44,0,0,0,2.53-2.7,2.44,2.44,0,0,1,2.44-2.3h5a2.63,2.63,0,0,0,1.7-.63,2.45,2.45,0,0,0,.57-0.7,2.31,2.31,0,0,0,.27-0.88,2.44,2.44,0,0,0-2.43-2.68h-14.93a2.63,2.63,0,0,1-.92-0.17,2.45,2.45,0,0,1-1.62-2h0a2.48,2.48,0,0,1,0-.51,2.44,2.44,0,0,1,2.43-2.17h13.81a2.51,2.51,0,0,0,2.54-2.2,2.44,2.44,0,0,0-2.43-2.68h-17.78c-1.35,0-2.44-.56-2.44-1.91h0a2.44,2.44,0,0,0-2.44-2.44H1214a2.51,2.51,0,0,1-2.54-2.2,2.44,2.44,0,0,1,2.43-2.68h15.9a2.62,2.62,0,0,0,.47,0l0.23-.06,0.21-.06a2.62,2.62,0,0,0,.32-0.15l0.09,0a2.59,2.59,0,0,0,.36-0.25h0a2.37,2.37,0,0,0,.84-1.55h0v0a2.44,2.44,0,0,0-2.43-2.68h-34.47a2.46,2.46,0,0,0-2.41,2.49,2.44,2.44,0,0,1-2.44,2.39h-6.86a2.51,2.51,0,0,0-2.54,2.2,2.44,2.44,0,0,0,2.43,2.68h16.78a2.44,2.44,0,0,1,2.55,2.46c0,0.08,0,.17,0,0.25a2.44,2.44,0,0,1-2.43,2.18h-9.24a2.51,2.51,0,0,0-2.54,2.2,2.44,2.44,0,0,0,2.43,2.68h13.21a2.44,2.44,0,0,1,2.44,2.44,2.44,2.44,0,0,0,2.44,2.44H1213a2.17,2.17,0,0,1,0,4.35h-32.88a2.61,2.61,0,0,0-.74.12h-11.09a2.46,2.46,0,0,0-2.41,2.49,2.44,2.44,0,0,1-2.44,2.39h-5a2.63,2.63,0,0,0-1.7.63,2.45,2.45,0,0,0-.57.7,2.3,2.3,0,0,0-.27.88,2.44,2.44,0,0,0,2.43,2.68h14.93a2.63,2.63,0,0,1,.92.17,2.45,2.45,0,0,1,1.62,2h0a2.52,2.52,0,0,1,0,.25c0,0.08,0,.17,0,0.25a2.44,2.44,0,0,1-2.43,2.17h-4.93a2.51,2.51,0,0,0-2.54,2.2,2.44,2.44,0,0,0,2.43,2.68h8.89c1.35,0,2.44.56,2.44,1.91h0a2.44,2.44,0,0,0,2.44,2.44h39.35a2.51,2.51,0,0,1,2.54,2.2,2.44,2.44,0,0,1-2.14,2.66h-43.36a2.46,2.46,0,0,0-2.41,2.49,2.44,2.44,0,0,1-2.44,2.39h-5a2.63,2.63,0,0,0-1.7.63,2.45,2.45,0,0,0-.57.7,2.31,2.31,0,0,0-.27.88,2.44,2.44,0,0,0,2.43,2.68h14.93a2.63,2.63,0,0,1,.92.17,2.45,2.45,0,0,1,1.62,2h0a2.49,2.49,0,0,1,0,.25c0,0.08,0,.17,0,0.25a2.44,2.44,0,0,1-2.43,2.17h-13.81a2.51,2.51,0,0,0-2.54,2.2,2.44,2.44,0,0,0,2.43,2.68h17.78c1.35,0,2.44.56,2.44,1.91h0a2.44,2.44,0,0,0,2.44,2.44h17.43a2.51,2.51,0,0,1,2.54,2.2,2.44,2.44,0,0,1-2.43,2.68h-12a2.62,2.62,0,0,0-.47,0l-0.23.06-0.21.06a2.61,2.61,0,0,0-.32.15l-0.09,0a2.59,2.59,0,0,0-.36.25h0a2.37,2.37,0,0,0-.84,1.55h0v0a2.44,2.44,0,0,0,2.43,2.68h26.15a2.46,2.46,0,0,0,2.41-2.49,2.44,2.44,0,0,1,2.44-2.39h6.86a2.51,2.51,0,0,0,2.54-2.2,2.44,2.44,0,0,0-2.43-2.68h-12.32a2.44,2.44,0,0,1-2.55-2.46c0-.08,0-0.17,0-0.25a2.44,2.44,0,0,1,2.43-2.18h4.93a2.51,2.51,0,0,0,2.54-2.2,2.44,2.44,0,0,0-2.43-2.68h-8.89a2.44,2.44,0,0,1-2.44-2.44,2.44,2.44,0,0,0-2.44-2.44h-3.73a2.17,2.17,0,0,1-.17-4.33h46.55a2.46,2.46,0,0,0,2.41-2.49,2.44,2.44,0,0,1,2.44-2.39h5a2.51,2.51,0,0,0,2.54-2.2A2.44,2.44,0,0,0,1267.07,279.69Z" transform="translate(-1121.95 -179.12)"/><path class="cls-8" d="M1159.45,275.31h0a2.42,2.42,0,0,0,.39-0.11l0,0a2.43,2.43,0,0,0,.35-0.17l0,0a2.45,2.45,0,0,0,.31-0.23l0,0a2.45,2.45,0,0,0,.27-0.29l0,0a2.44,2.44,0,0,0,.22-0.34v0a2.42,2.42,0,0,0,.25-0.84h0a2.44,2.44,0,0,0-2.43-2.71h-8.62a2.44,2.44,0,1,0,0,4.88H1159A2.45,2.45,0,0,0,1159.45,275.31Z" transform="translate(-1121.95 -179.12)"/><path class="cls-8" d="M1177.74,246a2.43,2.43,0,0,0,1.37.42h4.31a2.45,2.45,0,0,0,.44,0h0a2.43,2.43,0,0,0,.39-0.11l0,0a2.43,2.43,0,0,0,.35-0.17l0,0a2.46,2.46,0,0,0,.31-0.23l0,0a2.47,2.47,0,0,0,.27-0.29l0,0a2.42,2.42,0,0,0,.22-0.34v0a2.43,2.43,0,0,0,.25-0.84h0a2.44,2.44,0,0,0-2.43-2.71h-4.31a2.43,2.43,0,0,0-1.16.29l-0.27.17A2.44,2.44,0,0,0,1177.74,246Z" transform="translate(-1121.95 -179.12)"/><path class="cls-8" d="M1269.85,245.92h3.37a2.44,2.44,0,1,0,0-4.88h-3.37a2.45,2.45,0,0,0-.44,0h0a2.4,2.4,0,0,0-.39.11l0,0a2.42,2.42,0,0,0-.35.18l0,0a2.46,2.46,0,0,0-.31.23l0,0a2.45,2.45,0,0,0-.27.29l0,0a2.44,2.44,0,0,0-.22.34v0a2.42,2.42,0,0,0-.25.84h0a2.48,2.48,0,0,0,0,.27A2.44,2.44,0,0,0,1269.85,245.92Z" transform="translate(-1121.95 -179.12)"/><path class="cls-8" d="M1246,299.09a2.43,2.43,0,0,0-1.37-.42H1236a2.45,2.45,0,0,0-.44,0h0a2.42,2.42,0,0,0-.39.11l0,0a2.41,2.41,0,0,0-.35.17l0,0a2.44,2.44,0,0,0-.31.23l0,0a2.45,2.45,0,0,0-.27.29l0,0a2.45,2.45,0,0,0-.22.34v0a2.42,2.42,0,0,0-.25.84h0a2.44,2.44,0,0,0,2.43,2.71h8.62a2.43,2.43,0,0,0,1.16-.29l0.27-.17A2.44,2.44,0,0,0,1246,299.09Z" transform="translate(-1121.95 -179.12)"/><path class="cls-8" d="M1162.11,299.21h-2.5a2.44,2.44,0,1,0,0,4.88h2.5a2.45,2.45,0,0,0,.44,0h0a2.41,2.41,0,0,0,.39-0.11l0,0a2.41,2.41,0,0,0,.35-0.17l0,0a2.44,2.44,0,0,0,.31-0.23l0,0a2.45,2.45,0,0,0,.27-0.29l0,0a2.45,2.45,0,0,0,.22-0.34v0a2.42,2.42,0,0,0,.25-0.84h0A2.44,2.44,0,0,0,1162.11,299.21Z" transform="translate(-1121.95 -179.12)"/></g></g></g></g></g></svg>