<svg id="OBJECTS" xmlns="http://www.w3.org/2000/svg" viewBox="0 0 154.22 154.22"><defs><style>.cls-1{fill:#91c2ad;}.cls-2{fill:#0cbcb7;}.cls-3{opacity:0.2;}.cls-4{fill:#632063;}</style></defs><title>uranus</title><circle class="cls-1" cx="77.11" cy="77.11" r="53.89"/><path class="cls-2" d="M1109.94,1015.83a54.14,54.14,0,0,0,6.77,5.71,161.16,161.16,0,0,1,61.65.64,54.18,54.18,0,0,0,10.48-9.4C1156.18,1006.2,1125.56,1011.8,1109.94,1015.83Z" transform="translate(-1070.88 -900.63)"/><path class="cls-2" d="M1183.86,937.47c-22.43,3.91-53.87-.86-67.58-3.36a54.18,54.18,0,0,0-9.17,8.47c20.43,9,57.38,22.77,93.68,24.27A53.82,53.82,0,0,0,1183.86,937.47Z" transform="translate(-1070.88 -900.63)"/><path class="cls-2" d="M1094.37,972.24q-0.27,2.68-.27,5.43a54.53,54.53,0,0,0,.3,5.71c32.4-.55,59.88,12.47,3.69,14.65a53.71,53.71,0,0,0,4.55,8.73l95.89-10.37a53.67,53.67,0,0,0,3.28-16.18C1173.3,983.91,1124.45,977.23,1094.37,972.24Z" transform="translate(-1070.88 -900.63)"/><ellipse class="cls-2" cx="51.86" cy="64.09" rx="10.31" ry="3.12"/><ellipse class="cls-2" cx="91.34" cy="31.8" rx="3.12" ry="2.31"/><ellipse class="cls-2" cx="65.02" cy="122.84" rx="3.12" ry="1.36"/><ellipse class="cls-2" cx="115.76" cy="103.57" rx="1.76" ry="2.99"/><g class="cls-3"><path d="M1121.93,977.74c0,37.59,26.07,53.89,26.07,53.89a53.89,53.89,0,1,1,0-107.78S1121.93,941.52,1121.93,977.74Z" transform="translate(-1070.88 -900.63)"/></g><path class="cls-4" d="M1148,1054.85a77.11,77.11,0,1,1,77.11-77.11A77.2,77.2,0,0,1,1148,1054.85Zm0-145a67.88,67.88,0,1,0,67.88,67.88A68,68,0,0,0,1148,909.86Z" transform="translate(-1070.88 -900.63)"/></svg>