<svg id="OBJECTS" xmlns="http://www.w3.org/2000/svg" viewBox="0 0 154.22 154.22"><defs><style>.cls-1{fill:#cbba97;}.cls-2{fill:#b89876;}.cls-3{fill:#dbc59e;}.cls-4{fill:#f8e2b2;}.cls-5{fill:#c4966e;}.cls-6{opacity:0.2;}.cls-7{fill:#632063;}</style></defs><title>venus</title><circle class="cls-1" cx="77.12" cy="77.11" r="53.89"/><path class="cls-2" d="M508.34,269.08a54.19,54.19,0,0,0-8.63-9.57c-4.54,4.18-20.83,9.93-77.56,7a54,54,0,0,0-3.86,5.49c6.52,0.28,21.78,1.32,36.23,5.07C468.79,280.8,495.73,273.15,508.34,269.08Z" transform="translate(-387.18 -223)"/><path class="cls-2" d="M478.74,314.72c-13.87,6.82-16.4,1.29-22.34,2.59-3,.65-3.61,2.88-11.52,4-13,1.84-15.62,1.93-29.56,1.29q1,2.27,2.29,4.42c11.1,0.3,62.31,1.18,71.95-7.82,0,0,12.77-9.06,27.33-7.33q0.57-2.54.89-5.16C510.1,307.27,489.84,309.26,478.74,314.72Z" transform="translate(-387.18 -223)"/><path class="cls-3" d="M419.81,330.52A54.19,54.19,0,0,0,430,341.66c7-3.86,25.5-9.24,72.74-3.79a54.17,54.17,0,0,0,6.41-7.87C497.23,331.4,458.38,335.2,419.81,330.52Z" transform="translate(-387.18 -223)"/><path class="cls-4" d="M499.71,259.51a53.89,53.89,0,0,0-14.89-9.23C473,262.5,441.25,262.59,426.3,261.89a54.19,54.19,0,0,0-4.15,4.65C478.88,269.44,495.17,263.68,499.71,259.51Z" transform="translate(-387.18 -223)"/><path class="cls-4" d="M516.7,287.56a53.6,53.6,0,0,0-8.36-18.48c-12.62,4.07-39.55,11.72-53.82,8-14.45-3.75-29.71-4.79-36.23-5.07-0.74,1.21-1.42,2.46-2.07,3.73,6,1.5,15.68,5.59,20.66,7.22C470.88,294.1,505.11,289.62,516.7,287.56Z" transform="translate(-387.18 -223)"/><path class="cls-4" d="M444.88,321.3c7.91-1.12,8.54-3.35,11.52-4,5.94-1.29,8.46,4.23,22.34-2.59,11.1-5.46,31.36-7.45,39-8a54.44,54.44,0,0,0,.42-6.59h0c-7.41,3.08-21.81,3.57-21.81,3.57s-17.16-.94-42.79,2.59A229.18,229.18,0,0,1,411,308.11a53.49,53.49,0,0,0,4.32,14.48C429.26,323.24,431.85,323.14,444.88,321.3Z" transform="translate(-387.18 -223)"/><path class="cls-5" d="M489.55,319.19c-9.63,9-60.85,8.12-71.95,7.82,0.69,1.2,1.42,2.37,2.2,3.5,38.58,4.69,77.42.88,89.33-.52a53.59,53.59,0,0,0,7.75-18.14C502.33,310.12,489.55,319.19,489.55,319.19Z" transform="translate(-387.18 -223)"/><path class="cls-4" d="M430,341.66a54,54,0,0,0,6.63,4.68,147.07,147.07,0,0,1,54,.8,54.09,54.09,0,0,0,12.13-9.27C455.49,332.42,436.94,337.8,430,341.66Z" transform="translate(-387.18 -223)"/><path class="cls-5" d="M517.88,294.41c-0.09-.87-0.2-1.73-0.33-2.58-11.18,1.37-65.22,6.94-104.72-7.78a53.8,53.8,0,0,0-2.39,14.32C422.87,299.68,475.06,304.22,517.88,294.41Z" transform="translate(-387.18 -223)"/><g class="cls-6"><path d="M438.21,300.11c0,37.59,26.07,53.89,26.07,53.89a53.89,53.89,0,1,1,0-107.78S438.21,263.89,438.21,300.11Z" transform="translate(-387.18 -223)"/></g><path class="cls-7" d="M464.29,377.22a77.11,77.11,0,1,1,77.11-77.11A77.2,77.2,0,0,1,464.29,377.22Zm0-145a67.88,67.88,0,1,0,67.88,67.88A68,68,0,0,0,464.29,232.23Z" transform="translate(-387.18 -223)"/></svg>