<svg id="Layer_1" data-name="Layer 1" xmlns="http://www.w3.org/2000/svg" viewBox="0 0 122.27 122.27"><defs><style>.cls-1{fill:#fff;}.cls-2{fill:#007493;}</style></defs><title>be</title><circle class="cls-1" cx="61.14" cy="61.14" r="61.14"/><path class="cls-2" d="M2401.51,1072.26c1.41,0,2.82-.07,4.23-0.06,7.56,0,15.12,0,22.67.08a17,17,0,0,1,8.64,2.33c4.79,2.88,6.4,7.35,6.11,12.68a10.55,10.55,0,0,1-5.42,9.13c-0.41.24-.78,0.47,0,0.82,5.81,2.74,7.62,7.7,7.09,13.62-0.56,6.23-3.75,10.8-9.66,13.21a21.37,21.37,0,0,1-8,1.38c-8.36.06-16.72,0-25.08,0a5.22,5.22,0,0,1-.57-0.06v-53.17Zm18.93,43.73v0c1.83,0,3.67,0,5.5,0,5.17-.13,7.68-2.86,7.41-8,0-.11,0-0.23,0-0.34a5.07,5.07,0,0,0-2.7-4.25,8.8,8.8,0,0,0-3.83-1c-4-.31-8-0.09-12-0.17a0.89,0.89,0,0,0-1.09,1.06q0,5.84,0,11.69a0.94,0.94,0,0,0,1.15,1.13C2416.7,1116,2418.57,1116,2420.44,1116Zm0.19-34.29c-2.27,0-4.11,0-5.94,0a0.81,0.81,0,0,0-1,.9c0,3.2,0,6.41,0,9.61a0.72,0.72,0,0,0,.81.86c4.34-.1,8.7.33,13-0.28,3.18-.45,4.74-2.32,4.82-5.53a4.61,4.61,0,0,0-3.85-5C2425.76,1081.51,2423,1081.77,2420.63,1081.71Z" transform="translate(-2382.89 -1037.71)"/><path class="cls-2" d="M2486.54,1107.56c-0.53,0-1.07.08-1.6,0.08h-24.41c-1.48,0-1.63.19-1.36,1.69,0.87,4.75,3.9,7.27,8.74,7.41,3.17,0.09,5.8-.8,7.48-3.67a1.42,1.42,0,0,1,1.36-.67H2485c1,0,1.18.46,0.93,1.32a15,15,0,0,1-5.07,7.33,18.3,18.3,0,0,1-11,4,22.23,22.23,0,0,1-11-1.91,16.18,16.18,0,0,1-9.72-12.85,30.76,30.76,0,0,1,.49-12.61,17.25,17.25,0,0,1,15.09-12.95,23,23,0,0,1,10.93,1.2c5.57,2.11,8.7,6.36,10.26,11.92,0.26,0.92.43,1.86,0.64,2.79v6.88Zm-18.9-6.72c2.44,0,4.88,0,7.32,0,0.74,0,1.08-.24.94-1a7.66,7.66,0,0,0-2.38-4.7,8.52,8.52,0,0,0-14,4.69c-0.17.81,0.06,1,.82,1C2462.75,1100.82,2465.19,1100.84,2467.64,1100.84Z" transform="translate(-2382.89 -1037.71)"/><path class="cls-2" d="M2467.53,1080c-3.13,0-6.26,0-9.39,0-1,0-1.48-.33-1.42-1.39a25.69,25.69,0,0,0,0-3c-0.06-1.07.42-1.38,1.43-1.38,5.3,0,10.61,0,15.91,0,1.11,0,2.21,0,3.32,0a0.94,0.94,0,0,1,1.12,1.09c0,1.11,0,2.21,0,3.32a1.11,1.11,0,0,1-1.37,1.32C2473.94,1080,2470.73,1080,2467.53,1080Z" transform="translate(-2382.89 -1037.71)"/></svg>