<svg id="Layer_1" data-name="Layer 1" xmlns="http://www.w3.org/2000/svg" viewBox="0 0 122.27 122.27"><defs><style>.cls-1{fill:#fff;}.cls-2{fill:#007493;}</style></defs><title>dr</title><circle class="cls-1" cx="61.14" cy="61.14" r="61.14"/><path class="cls-2" d="M2704.4,1089.43v15.73c-0.36,1.68-.77,3.34-1.29,5a43.82,43.82,0,0,1-21.37,25.8,55.31,55.31,0,0,1-10.92,4.2h-19.26c-1.68-.51-3.39-0.95-5-1.55a43.91,43.91,0,0,1-18.94-13.17,42.42,42.42,0,0,1-9.43-19.77,2.31,2.31,0,0,0-.4-1v-15.26a3.53,3.53,0,0,0,.37-0.85,33.62,33.62,0,0,1,2.48-8.16,43.63,43.63,0,0,1,25.23-24.38,48.47,48.47,0,0,1,10.2-2.54h10.33a65.05,65.05,0,0,1,7.75,1.73A44.18,44.18,0,0,1,2704.4,1089.43Zm-41.72,44.83a38.09,38.09,0,0,0,10-1.75c2.93-.92,2.94-1,2.2-3.92,0-.08,0-0.15-0.05-0.23a150,150,0,0,0-6.65-23.31c-0.48-1.3-.69-1.41-2-0.92a58.14,58.14,0,0,0-11.42,5.69,49.47,49.47,0,0,0-15.42,15.35c-0.85,1.38-.83,1.41.46,2.33C2646.25,1132,2653.42,1134.25,2662.68,1134.25Zm-1.18-43c-0.83.23-1.65,0.47-2.49,0.68q-6.14,1.53-12.39,2.57c-3.75.62-7.51,1.06-11.28,1.41a89.46,89.46,0,0,1-9.73.38c-1.34,0-1.56.23-1.46,1.61a46.71,46.71,0,0,0,.88,7.56,37.89,37.89,0,0,0,7.64,15.43c0.53,0.65.91,0.57,1.35-.08,0.7-1,1.41-2.07,2.16-3.07a60.44,60.44,0,0,1,18.66-16.54,48.11,48.11,0,0,1,8.79-3.87c0.63-.2,1.25-0.43.84-1.3-0.63-1.35-1.25-2.7-1.9-4A1,1,0,0,0,2661.5,1091.27Zm-33.19-1.91c3.76-.29,8.25-0.51,12.71-1.09a135.51,135.51,0,0,0,16.24-3c1.48-.38,1.49-0.44.72-1.78-3.72-6.44-7.75-12.68-12-18.78a1.2,1.2,0,0,0-1.86-.4,39.39,39.39,0,0,0-6.89,4.65,36.73,36.73,0,0,0-11.61,17.83C2624.89,1089.26,2624.43,1089.43,2628.31,1089.36Zm32.92-29.09a30.44,30.44,0,0,0-7.12.59c-0.93.22-1,.54-0.47,1.33a205,205,0,0,1,12.18,19.2,1.3,1.3,0,0,0,1.92.66c6.37-2.69,12.19-6.21,16.85-11.42,1-1.11,1-1.3-.17-2.23A35.52,35.52,0,0,0,2661.23,1060.27ZM2698,1093.7a36.26,36.26,0,0,0-7.3-18.85c-0.58-.78-1-0.45-1.47.1a45.1,45.1,0,0,1-8.25,7.27,57.86,57.86,0,0,1-10.22,5.69c-0.86.37-1.27,0.74-.72,1.75a26.78,26.78,0,0,1,1.83,4.06,2,2,0,0,0,2.45,1.56,58.86,58.86,0,0,1,11-.25c3.5,0.32,7,.53,10.47,1.13C2698,1096.53,2698.1,1096.54,2698,1093.7Zm-16,7.49-5.59.39c-1,.07-1.23.45-0.88,1.45,1.38,3.87,2.6,7.79,3.68,11.75s2,8,2.78,12c0.17,0.87.47,0.83,1,.37,0.82-.67,1.68-1.29,2.47-2a36.82,36.82,0,0,0,11.93-20.27c0.33-1.51.34-1.53-1.12-1.93A60.28,60.28,0,0,0,2682,1101.2Z" transform="translate(-2599.94 -1035.69)"/></svg>