<svg id="Layer_1" data-name="Layer 1" xmlns="http://www.w3.org/2000/svg" viewBox="0 0 479.9 478.93"><defs><style>.cls-1{fill:#32cff9;}.cls-2{fill:#14baf4;}.cls-3{fill:#6f6f6f;}.cls-4{fill:#a4a4a4;}.cls-5{fill:#484848;}.cls-6{fill:#535353;}.cls-7{fill:#1c59a3;}.cls-8{fill:#2e6fce;}.cls-9{fill:#3f88e0;}</style></defs><title>ui2</title><circle class="cls-1" cx="239.95" cy="271.98" r="199.95"/><path class="cls-2" d="M265.41,238c-46.11-19.15-86.94-56-136.84-57.58-27.13-.87-53.49,9.19-76.68,23.55A199.56,199.56,0,0,0,40,272c0,110.43,89.52,199.95,199.95,199.95S439.9,382.41,439.9,272a201.53,201.53,0,0,0-2.28-30.25C380.44,257.74,319.61,260.48,265.41,238Z"/><rect class="cls-3" x="109.45" y="45.51" width="261" height="335" rx="8" ry="8"/><circle class="cls-4" cx="239.95" cy="114.54" r="42.5"/><path class="cls-5" d="M370.45,64.75l-11.5,6.74c-8.73,5.12-17.66,10.4-24.08,18.23-9.35,11.4-12.54,27.25-23.2,37.44-8.48,8.11-21.22,12.15-26.56,22.59a11.05,11.05,0,0,0-1.34,7.35c1,4.37,5.85,7,10.33,6.89s8.65-2.14,12.63-4.18q32.2-16.5,63.73-34.27V64.75Z"/><path class="cls-6" d="M117.45,45.51a8,8,0,0,0-8,8v82.06q9.92-5,19.69-10.24c8.81-4.75,18.07-10.26,22.18-19.39,2.2-4.88,2.68-10.33,4.17-15.46,5-17.07,20.4-28.92,36.06-37.32,5-2.67,10.09-5.14,15.18-7.65h-89.3Z"/><path class="cls-5" d="M168.69,151.07a8.3,8.3,0,0,0-3.3.4,485.19,485.19,0,0,0-55.94,18.31v31.87c6.76-7.47,13.51-15,22-20.4,10.59-6.74,23.2-9.67,34.09-15.92,2.79-1.6,5.62-3.61,6.74-6.63S171.87,151.55,168.69,151.07Z"/><rect class="cls-4" x="164.46" y="187.45" width="150.98" height="23.87" rx="4.9" ry="4.9"/><rect class="cls-4" x="164.46" y="222.61" width="150.98" height="23.87" rx="4.9" ry="4.9"/><path class="cls-6" d="M370.45,234.7q-16.63,4.92-32.88,11c-14.09,5.28-28.1,11.29-40.1,20.38-22.66,17.17-36.39,44.34-41.35,72.34-0.31,1.76-.58,3.65.16,5.27,0.93,2,3.17,3.11,5.24,4,28.48,12.19,58.09,23.18,89,25a136.56,136.56,0,0,0,19.91-.29V234.7Z"/><path class="cls-7" d="M73.85,383.32a200,200,0,0,0,355.66-47.57c-15.22-9-31.48-15.33-48.92-14.45-13,.65-25.44,5.34-37.65,9.88C256.61,363.3,165,391,73.85,383.32Z"/><path class="cls-8" d="M419,361.13c-53-4.89-106.68-11.07-155.66-31.78-19.51-8.25-38-18.7-56.43-29.13L143.32,264.3c-8.18-4.62-16.55-9.32-25.8-11-10.4-1.84-21.08.35-31.25,3.19A245.43,245.43,0,0,0,40,274.67c1.44,109.19,90.38,197.26,199.91,197.26A199.94,199.94,0,0,0,419,361.13Z"/><path class="cls-9" d="M105,419.46a199.88,199.88,0,0,0,281.77-11.74c-56.57-5.36-113.24-28.74-168.36-15.3-19.94,4.86-38.48,14.36-58.28,19.8C142.16,417.14,123.6,418.63,105,419.46Z"/></svg>