<svg id="Layer_1" data-name="Layer 1" xmlns="http://www.w3.org/2000/svg" viewBox="0 0 479.9 478.93"><defs><style>.cls-1{fill:#32cff9;}.cls-2{fill:#14baf4;}.cls-3{fill:#ff50c5;}.cls-4{fill:#ea0a95;}.cls-5{fill:#bc0c6c;}.cls-6{fill:#99167a;}.cls-7{fill:#870b5b;}.cls-8{fill:#d60b70;}.cls-9{fill:#7c0f68;}.cls-10{fill:#1c59a3;}.cls-11{fill:#2e6fce;}.cls-12{fill:#3f88e0;}</style></defs><title>ui2</title><circle class="cls-1" cx="239.95" cy="271.98" r="199.95"/><path class="cls-2" d="M40,272c0,110.43,89.52,199.95,199.95,199.95S439.9,382.41,439.9,272a199.45,199.45,0,0,0-13.14-71.4,105,105,0,0,0-16.91,6.47c-14.68,7-29.48,15.68-45.72,15.47-22.85-.29-41.24-17.8-61.74-27.89-33.38-16.42-73.59-12.88-108.63-.38-15.59,5.56-30.65,12.82-46.78,16.52-30.92,7.1-64.67-.23-90.34-18.74A199.25,199.25,0,0,0,40,272Z"/><path class="cls-3" d="M217.42,193.88l9,34.52a2.91,2.91,0,0,0,4,2.63q23.72-2.58,47.44-5.26a3.18,3.18,0,0,0,2.25-.89,3.22,3.22,0,0,0,.36-2.3,138.18,138.18,0,0,1,3.3-44.93,9.33,9.33,0,0,0,.34-4.69,9,9,0,0,0-2.56-3.65L269,156.71a18.58,18.58,0,0,0-5.78-4.47,13.23,13.23,0,0,0-7.14-.56c-9.81,1.57-17.46,9.3-23.23,17.4s-10.55,17.12-18.11,23.56"/><path class="cls-4" d="M284.05,173a9,9,0,0,0-2.56-3.65L269,156.71a18.58,18.58,0,0,0-5.78-4.47,13.23,13.23,0,0,0-7.14-.56c-9.81,1.57-17.46,9.3-23.23,17.4s-10.55,17.12-18.11,23.56l2.65,1.24,3.82,14.68,36.81-17a13.13,13.13,0,0,1,12.85-.72l9.86,3.43a137.72,137.72,0,0,1,3-16.62A9.33,9.33,0,0,0,284.05,173Z"/><path class="cls-5" d="M130.23,34.68c2.06,3.92,5.88,6.55,9.55,9l11.54,7.77a83.44,83.44,0,0,0,9.75,5.94c5.43,2.66,11.37,4.11,16.92,6.51a42.12,42.12,0,0,0,5.74,2.28,23.66,23.66,0,0,0,9.53.18,53.77,53.77,0,0,0,14.92-4.49,7.64,7.64,0,0,0,2.58-1.7,5.44,5.44,0,0,0,1.07-4.45c-0.68-4.2-4.59-7.05-8.35-9a64.79,64.79,0,0,0-18.67-6.44,94.57,94.57,0,0,1-10.23-2c-2.47-.73-5.66.06-8.18-0.48-5.3-1.12-10.12-1.63-15.33-3.12"/><path class="cls-5" d="M301.72,160q20,11.29,40.55,21.44a1.59,1.59,0,0,0,1.27.22,1.4,1.4,0,0,0,.68-0.91c0.82-2.41,0-5.06-.95-7.41-4.92-11.69-14.81-20.53-25.1-27.95-3-2.13-6.08-4.23-9.64-5s-7.7,0-10,2.79"/><path class="cls-3" d="M169.93,85.81c1.17,12.49,1.27,25.23-1.59,37.44s-8.89,24-18.44,32.1c-3.17,2.71-6.88,5.23-8.33,9.14a3.65,3.65,0,0,0-.22,2.31c0.56,1.83,3,2.12,4.9,2a80.05,80.05,0,0,0,23.58-5,124.89,124.89,0,0,0,8.56,43.84,4,4,0,0,0,5.56,3c13.68-2.61,26.87-7.29,40-12,5.25-1.87,10.73-3.88,14.46-8,4.71-5.22,5.7-12.78,5.64-19.81,0-2.24-.07-4.66,1.2-6.51s3.87-2.73,6.16-3.46c6.07-1.93,12.11-4.65,16.41-9.34s6.53-11.72,4.15-17.62c-2.28-5.65-8.11-9.07-13.92-10.89-1.81-.57-3.8-1.11-5-2.62a8.23,8.23,0,0,1-1.27-4.22c-0.5-4.68-.77-9.52-2.81-13.77-3.41-7.12-11-11.15-18.41-14a124.79,124.79,0,0,0-62.21-6.92"/><path class="cls-4" d="M254.42,121.56a5,5,0,0,1-1.33-1.17,8.23,8.23,0,0,1-1.27-4.22c-0.5-4.68-.77-9.52-2.8-13.77a19.46,19.46,0,0,0-3.14-4.63q-1.16-1.2-2.4-2.31a45.09,45.09,0,0,0-12.86-7,124.8,124.8,0,0,0-61-7.08l-1.08.52,1.41,4c0.46,4.84.75,9.72,0.77,14.59,5.23-1,10.41-4.55,15.89-5.08,7.42-.72,14.26,4.09,21.66,5,3.47,0.42,7,0,10.44.73,8.57,1.92,13.7,10.83,15.81,19.36s2.34,17.63,6.15,25.54l11.23-19.43A39.23,39.23,0,0,0,254.42,121.56Z"/><path class="cls-6" d="M177.12,42.34l-24.58,10.1c-2.18.9-4.75,2.35-4.67,4.71a14.17,14.17,0,0,0,.64,2.56c0.87,3.88-3,7.19-6.62,8.72s-8,2.58-10.1,5.93c-2.45,3.81-.36,9.69,3.95,11.1,5.22,1.71,11.4-2.5,16.19.19,2.41,1.35,3.67,4.09,5.78,5.88,5.12,4.35,12.94,1.8,18.91-1.29s13.05-6.57,19-3.5c2.41,1.24,4.28,3.42,6.8,4.42,5.44,2.14,12.21-1.86,17.19,1.2,3,1.87,4.63,6,8.13,6.67,2.09,0.39,4.59-.57,6.18.84,1.77,1.57.73,4.44,1,6.79,0.37,3.66,4,6.17,5,9.72,0.55,2,.2,4.1,0,6.15a44.06,44.06,0,0,0,3.28,21.63,58,58,0,0,1,9.7-19.06,4.73,4.73,0,0,1,1.9-1.68,4.52,4.52,0,0,1,3.24.36c8.4,3.37,14.88,13.13,11.53,21.54-1.22,3.06-3.52,5.54-5.26,8.33s-2.93,6.32-1.64,9.35c0.86,2,2.64,3.42,4.36,4.75l20.4,15.84a49.06,49.06,0,0,1,7.88-18.74,12.24,12.24,0,0,1,3.55-3.69c4.34-2.6,10.06.07,14.93-1.31,6.79-1.92,8.95-10.29,10-17.27a6.19,6.19,0,0,0-2.84-7.36C276.34,99.15,230.83,62.52,177.34,42"/><path class="cls-7" d="M181.28,122.69c1.34-4.33,7.9-7.4,12.08-7.38,5.5,0,9.45,3.77,10.83,8.86,0.84,3.1,5.66,1.79,4.82-1.33-1.95-7.21-8-12.5-15.65-12.53-6.65,0-14.87,4.49-16.9,11.05-1,3.08,3.87,4.4,4.82,1.33h0Z"/><path class="cls-7" d="M170.76,182.84a47,47,0,0,0,38.16-18.09c2-2.51-1.56-6.07-3.54-3.54a42.39,42.39,0,0,1-34.62,16.63c-3.22-.07-3.22,4.93,0,5h0Z"/><path class="cls-8" d="M206.62,229.92C232,218.29,264.19,212.49,292,214.77a2.28,2.28,0,0,1,2.57,3.06L292,239.48a5.66,5.66,0,0,1-4.34,5.81C264,255.55,240.1,265.87,214.9,271.37a237.13,237.13,0,0,1-8.28-41.45"/><path class="cls-5" d="M290.86,243.15a7.55,7.55,0,0,0,1.1-3.67l1.19-10a19.74,19.74,0,0,0-4.86.39Q252.4,236.15,217,245c-2.63.66-5.29,1.35-7.86,2.23q1.83,9.93,4.49,19.69c1-.23,2.07-0.5,3.09-0.78l62.56-17.29,8.31-3.59A7.56,7.56,0,0,0,290.86,243.15Z"/><path class="cls-6" d="M196.65,264.81l55.29-19.23c6.75-2.35,13.51-4.7,20.44-6.45a122.48,122.48,0,0,1,24.92-3.61,3.38,3.38,0,0,1,2.71.69,3.44,3.44,0,0,1,.55,2.52,66.19,66.19,0,0,0,.73,15.52c2.78,14.21,13.35,25.74,17.43,39.64,2.58,8.78,2.45,18.09,2.3,27.24,0,2.14-.1,4.4-1.23,6.22a11.46,11.46,0,0,1-3.42,3.16,138.83,138.83,0,0,1-114.11,19.22,49.18,49.18,0,0,1-14-5.81,29.89,29.89,0,0,1-5.84-45c4-4.48,9.54-8,11.63-13.61,2.2-5.94,0-12.78,1.93-18.81"/><path class="cls-9" d="M323.72,142.57a6.19,6.19,0,0,0-2.84-7.36C276.34,99.15,230.83,62.52,177.34,42l-0.22.38L162,48.56C181.26,59,194.09,80.05,214,89.83c1.31,0.64,2.64,1.23,4,1.79A7.61,7.61,0,0,1,219,92c14.2,5.62,30.61,7.7,40.19,19.36,3.32,4,5.47,8.91,8.62,13.09,6,7.9,15.34,13.12,19.84,21.94,3,5.9,3.47,12.73,5.19,19.13a18.9,18.9,0,0,0,.68,2.09c0.56-.94,1.15-1.87,1.77-2.77a12.24,12.24,0,0,1,3.55-3.69c4.34-2.6,10.06.07,14.93-1.31C320.55,157.92,322.71,149.55,323.72,142.57Z"/><path class="cls-8" d="M342.41,162.31c-3-6.36-7.06-12.18-9.6-18.72-9-23.05,2.82-49.45-2.56-73.59-3.76-16.89-15.86-31.16-30.62-40.18s-32-13.24-49.22-15.1c-11.39-1.23-23.19-1.43-34,2.4-12.79,4.54-23.5,14.5-36.86,16.89s-26.7-3.19-40.17-3.51h0s-0.79,0-1.91,0c-0.54,0-1.07,0-1.61,0a7.75,7.75,0,0,0-2.89.65c-1.52.5-2.79,1.33-3.06,2.74,0,0-.61,1.68,6.42,2.45h0l1.39,0.22A189.16,189.16,0,0,1,179,51.2,97.31,97.31,0,0,1,198.15,63c4.94,4.06,9.26,8.83,14,13.1,13.87,12.44,31.12,20.37,48.3,27.55,12.46,5.21,25.56,10.48,34.34,20.74,7,8.14,10.64,18.83,18.29,26.32,4.67,4.57,10.55,7.67,15.71,11.68a55,55,0,0,1,16.09,20.26C347.21,176.05,345.38,168.67,342.41,162.31Z"/><path class="cls-10" d="M414.16,261.82c-7,0-13.6,3.07-20,6A646.87,646.87,0,0,1,46,320.82c21.8,86.82,100.35,151.11,193.93,151.11,110.43,0,199.95-89.52,199.95-199.95,0-.76,0-1.51,0-2.26l-8.49-3.41C425.84,264.09,420.13,261.83,414.16,261.82Z"/><path class="cls-11" d="M239.95,471.93a199.72,199.72,0,0,0,164.77-86.66c-11.75-9.08-24-17.78-38.21-21.87-11.69-3.37-24.21-3.45-35.69-7.5C311.26,349,297.55,331.73,281,319.27a115,115,0,0,0-47.52-21c-19.63-3.71-39.86-2.22-59.75-4.11-47.32-4.5-90.32-27.68-131.49-51.92A201.52,201.52,0,0,0,40,272C40,382.41,129.52,471.93,239.95,471.93Z"/><path class="cls-12" d="M60.56,360.36a200,200,0,0,0,283.61,82.28c-13.73-11.77-32-18.08-50-21.76-21.86-4.48-44.45-5.9-65.56-13.1-35.13-12-64.15-39.25-100.36-47.39-21.29-4.78-43.45-2.55-65.16-.28Z"/></svg>