<svg id="Layer_1" data-name="Layer 1" xmlns="http://www.w3.org/2000/svg" viewBox="0 0 479.9 478.93"><defs><style>.cls-1{fill:#32cff9;}.cls-2{fill:#14baf4;}.cls-3{fill:#99167a;}.cls-4{fill:#ff0092;}.cls-5{fill:#e51085;}.cls-6{opacity:0.23;}.cls-7{fill:#ff99e2;}.cls-8{fill:#1c59a3;}.cls-9{fill:#2e6fce;}.cls-10{fill:#3f88e0;}</style></defs><title>ui2</title><circle class="cls-1" cx="239.95" cy="271.98" r="199.95"/><path class="cls-2" d="M239.95,471.93c110.43,0,199.95-89.52,199.95-199.95a200.09,200.09,0,0,0-7.49-54.39c-13.94.13-27.78-.13-39.59-6.75S373.33,192.42,362.18,185c-15.85-10.57-36.66-10.85-55.17-6.3s-35.62,13.41-53.44,20.15C190.77,222.61,118.2,218.5,58,188.93A199.2,199.2,0,0,0,40,272C40,382.41,129.52,471.93,239.95,471.93Z"/><rect class="cls-3" x="111.95" y="20.55" width="257.99" height="192.09" rx="6.61" ry="6.61"/><rect class="cls-4" x="129.42" y="37.66" width="223.05" height="157.88" rx="6.61" ry="6.61"/><path class="cls-5" d="M375.58,324.5H106.31a4,4,0,0,1-4-4.34l9.29-103.75a4,4,0,0,1,4-3.63H366.3a4,4,0,0,1,4,3.63l9.29,103.75A4,4,0,0,1,375.58,324.5Z"/><polygon class="cls-3" points="166.3 248.38 130.32 248.38 128.85 269.54 165.32 269.54 166.3 248.38"/><polygon class="cls-3" points="166.32 269.54 202.79 269.54 203.28 248.38 167.3 248.38 166.32 269.54"/><polygon class="cls-3" points="131.37 233.33 130.39 247.38 166.35 247.38 167 233.32 131.37 233.32 131.37 233.33"/><polygon class="cls-3" points="354.21 291.7 352.74 270.54 316.25 270.54 317.23 291.7 354.21 291.7"/><polygon class="cls-3" points="165.28 270.54 128.78 270.54 127.31 291.7 164.3 291.7 165.28 270.54"/><polygon class="cls-3" points="159.02 314.86 163.13 316.86 163.22 314.86 159.02 314.86"/><path class="cls-3" d="M127.24,292.7l-0.35,5a2.71,2.71,0,0,0,1.52,2.29L157,313.86h6.31l1-21.16h-37Z"/><polygon class="cls-3" points="203.63 233.32 168 233.32 167.35 247.38 203.3 247.38 203.63 233.32"/><polygon class="cls-3" points="241.26 233.32 241.26 247.38 277.22 247.38 276.89 233.32 241.26 233.32"/><polygon class="cls-3" points="241.26 269.54 277.73 269.54 277.24 248.38 241.26 248.38 241.26 269.54"/><polygon class="cls-3" points="313.53 233.32 277.89 233.32 278.22 247.38 314.18 247.38 313.53 233.32"/><polygon class="cls-3" points="314.22 248.38 278.24 248.38 278.73 269.54 315.2 269.54 314.22 248.38"/><polygon class="cls-3" points="241.26 313.86 278.76 313.86 278.27 292.7 241.26 292.7 241.26 313.86"/><polygon class="cls-3" points="350.16 233.32 314.53 233.32 315.18 247.38 351.13 247.38 350.16 233.32"/><polygon class="cls-3" points="352.67 269.54 351.2 248.38 315.22 248.38 316.2 269.54 352.67 269.54"/><polygon class="cls-3" points="241.26 291.7 278.25 291.7 277.76 270.54 241.26 270.54 241.26 291.7"/><polygon class="cls-3" points="317.72 324 317.3 314.86 279.78 314.86 279.99 324 317.72 324"/><polygon class="cls-3" points="317.25 313.86 316.27 292.7 279.27 292.7 279.76 313.86 317.25 313.86"/><polygon class="cls-3" points="316.23 291.7 315.25 270.54 278.76 270.54 279.25 291.7 316.23 291.7"/><polygon class="cls-3" points="278.78 314.86 241.26 314.86 241.26 324 278.99 324 278.78 314.86"/><path class="cls-3" d="M340.85,313.86l13.52-13.79a2.69,2.69,0,0,0,.39-0.51l-0.48-6.86h-37l1,21.16h22.59Z"/><path class="cls-3" d="M179.88,325l11.21,5.44a2.72,2.72,0,0,0,1.19.27h130.9a2.72,2.72,0,0,0,1.94-.81l4.81-4.9h-150Z"/><polygon class="cls-3" points="330.91 324 339.87 314.86 318.3 314.86 318.72 324 330.91 324"/><polygon class="cls-3" points="240.26 314.86 202.74 314.86 202.53 324 240.26 324 240.26 314.86"/><polygon class="cls-3" points="202.77 270.54 166.28 270.54 165.3 291.7 202.28 291.7 202.77 270.54"/><polygon class="cls-3" points="201.74 314.86 164.22 314.86 164.11 317.34 177.82 324 201.53 324 201.74 314.86"/><polygon class="cls-3" points="202.26 292.7 165.25 292.7 164.27 313.86 201.77 313.86 202.26 292.7"/><polygon class="cls-3" points="240.26 233.32 204.63 233.32 204.3 247.38 240.26 247.38 240.26 233.32"/><polygon class="cls-3" points="240.26 248.38 204.28 248.38 203.79 269.54 240.26 269.54 240.26 248.38"/><polygon class="cls-3" points="240.26 270.54 203.77 270.54 203.28 291.7 240.26 291.7 240.26 270.54"/><polygon class="cls-3" points="240.26 292.7 203.26 292.7 202.77 313.86 240.26 313.86 240.26 292.7"/><g class="cls-6"><path class="cls-3" d="M345.87,37.65H136a6.61,6.61,0,0,0-6.61,6.61V166.32C154.52,153,184.9,148.7,206.36,130c15.85-13.84,25.94-34.88,45.18-43.42,26.4-11.72,57.66,5.28,85.71-1.65a51.51,51.51,0,0,0,15.23-6.55V44.26A6.61,6.61,0,0,0,345.87,37.65Z"/></g><g class="cls-6"><path class="cls-3" d="M136,37.65a6.61,6.61,0,0,0-6.61,6.61v71.81c13.09-4.18,26.59-10,32.3-22.16,2.43-5.19,3.14-11.06,5.63-16.21C172.92,66.17,186,60.5,198.28,57s25.54-6.13,35.06-14.68a9.13,9.13,0,0,0,3.16-4.65H136Z"/></g><g class="cls-6"><path class="cls-3" d="M345.87,195.53a6.61,6.61,0,0,0,6.61-6.61V110.45c-12.89.42-25.82,1.12-38.37,4-14.28,3.3-28.22,9.68-38.23,20.38-7.53,8-12.57,18.21-20.4,25.95-5.94,5.87-13.27,10.13-20.73,13.89-17.83,9-36.75,15.38-56,20.85H345.87Z"/></g><g class="cls-6"><path class="cls-3" d="M345.87,195.53a6.61,6.61,0,0,0,6.61-6.61V156.66C325.53,153,297,165.38,280.34,187c-2.1,2.73-4,5.58-5.84,8.5h71.37Z"/></g><path class="cls-7" d="M175,119v-4.76a4.47,4.47,0,0,1,2.68-4.09L205.87,97.8a4.47,4.47,0,0,1,6.26,4.09v1a4.47,4.47,0,0,1-2.77,4.13l-13.14,5.41a4.47,4.47,0,0,0,0,8.27l13.14,5.41a4.47,4.47,0,0,1,2.77,4.13v1.15a4.47,4.47,0,0,1-6.26,4.09l-28.24-12.37A4.47,4.47,0,0,1,175,119Z"/><path class="cls-7" d="M253.59,82.39h0a4.47,4.47,0,0,1,4,6.4L227.87,151a4.47,4.47,0,0,1-4,2.54h0a4.47,4.47,0,0,1-4-6.4l29.75-62.19A4.47,4.47,0,0,1,253.59,82.39Z"/><path class="cls-7" d="M269.14,126.26l13.14-5.4a4.47,4.47,0,0,0,0-8.27l-13.14-5.41a4.47,4.47,0,0,1-2.77-4.13V101.9a4.47,4.47,0,0,1,6.26-4.09l28.24,12.37a4.47,4.47,0,0,1,2.68,4.09V119a4.47,4.47,0,0,1-2.68,4.09l-28.24,12.37a4.47,4.47,0,0,1-6.26-4.09v-1A4.47,4.47,0,0,1,269.14,126.26Z"/><path class="cls-8" d="M300.56,334.54c-33.13-19-67.36-38.41-105.24-43.34-14.92-1.94-30.05-1.58-45-3.26-39-4.39-74.54-22.32-108.57-42.41A201.75,201.75,0,0,0,40,272,199,199,0,0,0,67.77,373.66c13.22,0.16,26.46-.17,39.61-0.69C173.44,370.34,240.83,362.9,300.56,334.54Z"/><path class="cls-9" d="M332.43,283.37c-30.8,13.61-61.2,29.76-94.53,34.54-32.47,4.65-65.4-1.84-98.19-2.23a264.56,264.56,0,0,0-90.92,15.09C73.9,412.51,150,471.93,239.95,471.93c110.43,0,199.95-89.52,199.95-199.95,0-2.07,0-4.13-.1-6.18-3.22-.81-6.47-1.52-9.76-2.06C396.8,258.31,363.23,269.76,332.43,283.37Z"/><path class="cls-10" d="M57.12,353a200,200,0,0,0,340.29,42.2q-15.34-7-31-13.35c-14.18-5.7-28.83-11-44.1-11.73s-30.41,3.12-45.34,6.58c-31.41,7.28-63.35,12.94-95.59,13.67-16.61.37-33.54-.63-49.11-6.41-13-4.83-24.57-12.82-37-18.9A137.4,137.4,0,0,0,57.12,353Z"/></svg>