<svg id="Layer_1" data-name="Layer 1" xmlns="http://www.w3.org/2000/svg" viewBox="0 0 122.27 122.27"><defs><style>.cls-1{fill:#fff;}.cls-2{fill:#007493;}</style></defs><title>in</title><circle class="cls-1" cx="61.14" cy="61.14" r="61.14"/><path class="cls-2" d="M2887,1136.86h-34.3l-3.65-.61c-6.13-1.06-11.15-3.89-14.64-9.15a25.85,25.85,0,0,1-3.94-13.77c-0.31-9-.11-18-0.13-27,0-4.62,0-9.25,1.35-13.74a20.38,20.38,0,0,1,12.9-13.94c4.05-1.53,8.3-1.8,12.56-1.84,5.68-.06,11.35-0.09,17,0s11.42-.32,17.1.62c9.16,1.52,15.26,6.53,17.93,15.53,0.62,2.1.72,4.3,1.17,6.43v34.08c-0.2,1.58-.33,3.17-0.6,4.74a21.21,21.21,0,0,1-18.56,18.12C2889.79,1136.56,2888.38,1136.59,2887,1136.86Zm-18.11-7.42c4.09,0,7,0,9.91,0,4.07-.09,8.15.11,12.18-0.69a13.32,13.32,0,0,0,10.73-9.14c1.2-3.42,1.15-7,1.19-10.57q0.09-10.53,0-21.07c0-4,.1-7.93-0.71-11.85a13.27,13.27,0,0,0-10.44-10.93,38.5,38.5,0,0,0-9.32-.79c-7,0-14-.07-21,0-4,0-8.08-.13-12.06.76-5.16,1.15-8.75,4.06-10.39,9.21a31.11,31.11,0,0,0-1.14,9.28c-0.07,7.1-.1,14.19-0.05,21.29,0,4.28-.15,8.59.72,12.83a13.85,13.85,0,0,0,4.06,7.56c2.78,2.62,6.21,3.56,9.86,3.86C2858.33,1129.62,2864.2,1129.35,2868.87,1129.44Z" transform="translate(-2809.18 -1035.69)"/><path class="cls-2" d="M2891.14,1096.7c-0.23,11.76-9,20.92-20.91,20.87a20.69,20.69,0,0,1,0-41.39C2882.05,1076.12,2890.75,1085.27,2891.14,1096.7Zm-7.53.09c-0.45-7.69-5.77-13-13.24-13.07a13.16,13.16,0,0,0,0,26.32C2878,1110.1,2883.36,1104.31,2883.62,1096.79Z" transform="translate(-2809.18 -1035.69)"/><path class="cls-2" d="M2886.85,1075.55a4.85,4.85,0,0,1,5-5,5,5,0,0,1,4.84,4.93,4.91,4.91,0,0,1-4.81,4.93A4.8,4.8,0,0,1,2886.85,1075.55Z" transform="translate(-2809.18 -1035.69)"/></svg>