<svg id="Layer_1" data-name="Layer 1" xmlns="http://www.w3.org/2000/svg" viewBox="0 0 122.27 122.27"><defs><style>.cls-1{fill:#fff;}.cls-2{fill:#007493;}</style></defs><title>me</title><circle class="cls-1" cx="61.14" cy="61.14" r="61.14"/><path class="cls-2" d="M3059.81,1060.93q34.21,0,68.43,0c1.28,0,1.53.25,1.53,1.53q-0.07,34.4,0,68.8c0,1.28-.25,1.53-1.53,1.53q-33.47-.08-66.93,0c-1.28,0-1.53-.25-1.53-1.53Q3059.85,1096.08,3059.81,1060.93Zm44,27.56,0.61,0.05q0,1,0,2c0,5.11-.16,10.22.06,15.32,0.14,3.36-.2,6.29-3.26,8.3a1,1,0,0,0-.6,1.22,1.24,1.24,0,0,0,1.35.38h15.32a1.09,1.09,0,0,0,1.15-.42,1,1,0,0,0-.49-1.11,10.29,10.29,0,0,0-1.19-1.18,5.63,5.63,0,0,1-2.16-5c0.11-6.91.19-13.83,0-20.74-0.11-3.51.29-6.54,3.46-8.61a1,1,0,0,0,.67-1c-0.18-.65-0.82-0.44-1.28-0.44-3.05,0-6.11.09-9.15,0a2.93,2.93,0,0,0-3.32,2.2c-2.5,6.51-5.14,13-7.75,19.43-0.27.67-.33,1.76-1.08,1.82-0.94.07-1-1.08-1.34-1.77-3-6.56-6-13.14-9-19.71-0.41-.89-0.7-1.93-2-1.92-3.8,0-7.6,0-11.4,0-1.18,0-1.27.59-.59,1.42,1.06,1.3,2.11,2.62,3.22,3.88a5.06,5.06,0,0,1,1.33,3.57q-0.05,10,0,20a5,5,0,0,1-1.23,3.42c-1.34,1.56-2.63,3.16-3.93,4.75-0.64.78-.5,1.28,0.55,1.28q5.79,0,11.59,0c1.28,0,1.15-.63.51-1.39-1.15-1.39-2.25-2.83-3.46-4.17a6,6,0,0,1-1.65-4.4c0.08-5,0-10.09,0-15.14a2.33,2.33,0,0,1,.39-2,3.75,3.75,0,0,1,1.17,1.86c3.57,7.75,7.11,15.51,10.69,23.26,0.34,0.74.45,1.88,1.59,1.81s1.07-1.12,1.35-1.83c2.55-6.42,5.07-12.86,7.6-19.29Q3102.7,1091.34,3103.84,1088.49Z" transform="translate(-3033.64 -1035.69)"/></svg>